<svg preserveAspectRatio="none" width="100%" height="100%" overflow="visible" style="display: block;" viewBox="0 0 70 70" fill="none" xmlns="http://www.w3.org/2000/svg">
<g id="ITALIANO [Vectorized]" clip-path="url(#clip0_0_4)">
<path id="Vector" d="M32.7467 0H37.2457C37.2558 0.00711102 37.2656 0.0147226 37.2761 0.021333C37.3946 0.0960641 40.6178 0.415073 41.067 0.486955C42.3741 0.696192 43.6516 1.03442 44.921 1.40353C56.8135 4.92931 65.9712 14.456 69.0252 26.4783C69.4846 28.2531 69.7464 30.2801 69.9043 32.1104C69.9241 32.3461 69.8455 32.5434 70 32.7471V37.3549C69.6295 39.7117 69.611 41.0188 68.9944 43.506C66.9809 51.4951 62.2202 58.521 55.5465 63.3524C51.5789 66.2091 47.0667 68.2201 42.2896 69.2604C41.4814 69.4422 38.3026 69.8811 38.0145 70H31.8789C30.9982 69.7539 30.051 69.6999 29.1661 69.5393C28.2602 69.3745 27.2111 69.1318 26.3144 68.9035C20.9241 67.5283 15.9408 64.8842 11.7801 61.1918C6.18918 56.227 2.31459 49.6439 0.755959 42.3232C0.46667 40.9644 0.0608947 38.8591 0.103368 37.5025L0 37.4616V32.7539C0.156125 32.5554 0.0881699 32.3863 0.104796 32.1519C0.232553 30.3497 0.512986 28.4244 0.949744 26.6756C3.93053 14.5624 13.1138 4.93974 25.0746 1.39646C26.3612 1.01233 27.6707 0.709461 28.9954 0.489638C29.4834 0.408887 32.5957 0.0993986 32.7175 0.0209314C32.7276 0.0144372 32.737 0.00697717 32.7467 0Z" fill="transparent"/>
<path id="Vector_2" d="M6.61261 20.5648C9.52082 15.0542 17.1901 9.60128 23.0554 7.86235C27.35 6.58906 31.453 5.59123 35.975 5.97099C38.6604 6.12525 40.6254 6.30123 43.2048 7.25184C44.3575 7.67662 45.7479 7.87862 46.8807 8.4337C48.1139 8.99616 49.5634 9.73827 50.7505 10.3925C54.8806 12.6688 58.4112 16.055 61.0216 19.974C61.4247 20.5791 62.3693 21.8896 62.5718 22.5399C64.3148 26.1634 65.1999 29.0479 65.2621 33.1183C65.2738 33.8817 65.3122 35.6809 65.1515 36.3787C65.0722 39.1404 64.0098 42.1922 62.8763 44.6962C62.7523 44.9702 62.3038 45.7674 62.2493 46.009C62.0113 46.9404 61.2612 47.6958 60.7337 48.4952C57.8426 52.8767 53.522 56.2494 48.8178 58.4958C47.3749 59.1848 45.9006 59.816 44.3857 60.3231C41.091 61.2613 37.7962 61.5613 34.4276 61.8887L34.4622 61.8735C33.4053 61.8177 32.5796 61.818 31.5256 61.8775C31.1138 61.9006 30.3912 61.7935 29.94 61.8007C29.4342 61.8089 28.8863 61.8051 28.3836 61.7535C27.7225 61.6856 26.9078 61.157 26.2888 61.0282C25.2345 60.8089 24.2549 60.6252 23.2217 60.2977C22.549 60.0844 22.0177 59.7861 21.3748 59.549C16.4334 57.7268 12.375 54.6119 8.92801 50.6673C8.44443 50.1139 7.46402 49.0852 7.26387 48.4107C7.15401 48.172 6.41722 47.0122 6.22941 46.6812C5.56067 45.5051 4.9962 44.2727 4.54245 42.9983C4.17063 42.4161 3.50971 40.4415 3.32705 39.7636C2.2599 35.8034 2.33623 31.1346 3.47387 27.2033C4.0722 25.1356 5.49784 22.4116 6.61261 20.5648Z" fill="#B4F0FA"/>
<path id="Vector_3" d="M40.1291 59.3096C40.1947 59.2712 40.55 59.1834 40.6718 59.1376C42.1184 58.5928 43.6297 58.4658 45.1459 58.098C46.8399 57.8096 48.1837 56.8032 49.6474 56.0866C51.4482 55.2051 51.7681 54.9628 53.0863 53.4883C53.8578 52.6255 55.19 51.7 56.0379 50.7608C57.5688 49.0652 58.9128 47.2516 59.9469 45.2038C60.2777 44.5586 60.6915 43.4459 60.9659 42.754C61.2673 41.9938 61.9284 40.6216 62.0978 39.872C62.5458 37.9367 62.591 35.9956 62.7313 34.0323C62.7959 33.1292 63.0658 31.7564 63.2187 30.84L63.2254 30.8975C63.6336 29.9243 63.2937 28.9947 62.8724 28.2144C62.8009 28.0822 63.0809 27.5501 63.1377 27.3036C63.3063 26.5735 63.1098 25.6951 63.3646 25.0223C63.3683 25.0137 63.4808 24.8348 63.4731 24.8138C63.3066 24.3562 62.6404 22.9692 62.4854 22.5743L62.5718 22.5399C64.3148 26.1634 65.1999 29.048 65.2621 33.1183C65.2738 33.8817 65.3122 35.6809 65.1515 36.3787C65.0722 39.1404 64.0098 42.1922 62.8763 44.6962C62.7523 44.9702 62.3038 45.7674 62.2493 46.009C62.0113 46.9404 61.2612 47.6958 60.7337 48.4952C57.8426 52.8767 53.522 56.2494 48.8178 58.4958C47.3749 59.1848 45.9006 59.816 44.3857 60.3231C41.091 61.2614 37.7962 61.5613 34.4276 61.8888L34.4622 61.8735C33.4053 61.8177 32.5796 61.818 31.5256 61.8775C31.1138 61.9007 30.3912 61.7935 29.94 61.8007C29.4342 61.8089 28.8863 61.8051 28.3836 61.7535C27.7225 61.6856 26.9078 61.157 26.2888 61.0282C25.2345 60.8089 24.2549 60.6252 23.2217 60.2977C22.549 60.0844 22.0177 59.7861 21.3748 59.549C16.4334 57.7268 12.375 54.6119 8.92801 50.6673C8.44443 50.1139 7.46402 49.0852 7.26387 48.4107C9.76657 51.5869 12.6155 54.5618 16.0546 56.7115C16.7627 57.154 17.6494 57.7382 18.4064 58.0621C19.9974 58.9397 23.7112 60.4302 25.5174 60.7197C25.3983 60.6103 25.3682 60.579 25.2755 60.4467C25.6629 60.2253 26.6319 60.4345 27.1057 60.4738C27.7037 60.5234 28.1907 60.5397 28.7932 60.5249C28.3827 60.2895 27.5767 60.233 27.0223 59.7613L27.0349 59.665L27.1953 59.6035C29.0476 60.2973 34.1137 60.417 36.1167 60.1384C36.8698 60.0337 39.3323 59.5083 40.1291 59.3096Z" fill="#59D4F4"/>
<path id="Vector_4" d="M59.7058 49.0608C59.7777 48.4975 61.6118 46.9029 61.9784 46.1885C62.9286 44.3372 63.6246 42.7753 64.2339 40.7574C64.5719 39.6236 64.8078 38.4619 64.9387 37.286C64.9796 36.9387 65.0293 35.9225 65.0902 35.6922C65.1392 35.7891 65.1453 36.24 65.1515 36.3787C65.0722 39.1404 64.0098 42.1922 62.8763 44.6962C62.7523 44.9702 62.3038 45.7674 62.2493 46.009C62.0113 46.9404 61.2612 47.6958 60.7337 48.4952C57.8426 52.8767 53.522 56.2494 48.8178 58.4958C47.3749 59.1848 45.9006 59.816 44.3857 60.3231C41.091 61.2613 37.7962 61.5613 34.4276 61.8888L34.4622 61.8735C33.4053 61.8177 32.5796 61.818 31.5256 61.8775C31.1138 61.9006 30.3912 61.7935 29.94 61.8007C29.4342 61.8089 28.8863 61.8051 28.3836 61.7535C27.7225 61.6856 26.9078 61.157 26.2888 61.0282C25.2345 60.8089 24.2549 60.6252 23.2217 60.2977C22.549 60.0844 22.0177 59.7861 21.3748 59.549C16.4334 57.7268 12.375 54.6119 8.92801 50.6673C8.44443 50.1139 7.46402 49.0852 7.26387 48.4107C9.76657 51.5869 12.6155 54.5618 16.0546 56.7115C16.7627 57.154 17.6494 57.7382 18.4064 58.0621C19.9974 58.9397 23.7112 60.4302 25.5174 60.7197C25.3983 60.6103 25.3682 60.579 25.2755 60.4467C25.6629 60.2253 26.6319 60.4345 27.1057 60.4738C27.7037 60.5234 28.1907 60.5397 28.7932 60.5249C29.0829 60.5294 29.437 60.5858 29.7209 60.6221C32.5803 60.9874 35.3951 60.9645 38.2447 60.5179C39.0302 60.3948 39.8292 60.4144 40.6486 60.2234C40.8855 60.1438 41.8112 59.8406 41.9947 59.8871L41.8162 60.1042C43.0322 59.9512 44.5264 59.2693 45.6887 58.8543C47.4886 58.2115 49.2385 57.3396 50.9406 56.4724C51.4718 56.2017 52.0568 55.6321 52.5721 55.2982C55.2394 53.5697 57.373 51.1688 59.7058 49.0608Z" fill="#3EB4DC"/>
<path id="Vector_5" d="M28.7932 60.5249C29.0829 60.5294 29.437 60.5858 29.7209 60.6221C32.5803 60.9874 35.3951 60.9645 38.2447 60.5179C39.0302 60.3948 39.8292 60.4144 40.6486 60.2234C41.8136 60.2976 41.7283 60.236 42.8725 60.5286C38.01 61.6795 33.1447 62.0432 28.2319 61.1966C27.7519 61.1139 25.8892 60.8875 25.5174 60.7197C25.3983 60.6103 25.3682 60.579 25.2755 60.4467C25.6629 60.2253 26.6319 60.4345 27.1057 60.4738C27.7037 60.5234 28.1907 60.5397 28.7932 60.5249Z" fill="#3EB4DC"/>
<path id="Vector_6" d="M62.2493 46.009C62.0113 46.9404 61.2612 47.6958 60.7337 48.4952C57.8426 52.8767 53.522 56.2494 48.8178 58.4958C47.3749 59.1848 45.9006 59.8159 44.3857 60.3231C41.091 61.2613 37.7962 61.5613 34.4276 61.8887L34.4622 61.8735C33.4053 61.8177 32.5796 61.818 31.5256 61.8775C31.1138 61.9006 30.3912 61.7934 29.94 61.8007C29.4342 61.8089 28.8863 61.8051 28.3836 61.7535C27.7225 61.6856 26.9078 61.157 26.2888 61.0282C25.2345 60.8089 24.2549 60.6252 23.2217 60.2977C22.549 60.0844 22.0177 59.7861 21.3748 59.549C16.4334 57.7267 12.375 54.6119 8.92801 50.6673C8.44443 50.1139 7.46402 49.0852 7.26387 48.4107C9.76657 51.5869 12.6155 54.5618 16.0546 56.7115C16.7627 57.154 17.6494 57.7382 18.4064 58.0621C19.9974 58.9397 23.7112 60.4302 25.5174 60.7197C25.8892 60.8875 27.7519 61.1139 28.2319 61.1966C33.1447 62.0432 38.01 61.6795 42.8725 60.5286C44.8239 60.0955 46.1447 59.5388 47.9436 58.7331C52.5131 56.6867 56.9187 53.5336 59.8528 49.4367C60.7033 48.2767 61.4362 47.1655 62.2493 46.009Z" fill="#C6C7C8"/>
<path id="Vector_7" d="M6.61261 20.5648L6.70332 20.5945C6.51265 21.1176 6.15368 21.5415 5.91766 21.9856C5.44119 22.8822 4.09279 25.5638 3.86762 26.4961C4.1705 26.9287 3.98085 27.2706 4.06055 27.804C4.43879 30.3355 4.41435 32.8999 4.85412 35.4188C4.88816 35.6139 4.99126 35.8015 5.01813 35.9825C5.06718 35.4875 4.94687 34.6842 5.00008 34.2189C5.23635 32.1526 5.19788 29.7135 5.89658 27.7732C5.98795 27.5196 5.94181 27.2238 6.10447 26.9909C6.13867 27.0985 5.64864 28.9648 5.60012 29.3297C5.23444 32.0799 4.93752 35.9077 5.52913 38.6253C6.34044 41.1679 7.56212 44.3298 8.97367 46.5637C10.7013 49.1413 12.9551 51.2132 15.263 53.2419C16.9738 54.7457 18.3881 55.7036 20.4193 56.7347C24.9406 59.0301 30.4012 59.768 35.4245 59.7663C36.9779 59.7658 38.3385 59.2785 40.1291 59.3096C39.3323 59.5083 36.8698 60.0337 36.1167 60.1384C34.1137 60.417 29.0476 60.2973 27.1953 59.6035L27.0349 59.665L27.0223 59.7613C27.5767 60.233 28.3827 60.2895 28.7932 60.5249C28.1907 60.5397 27.7037 60.5234 27.1057 60.4738C26.6319 60.4345 25.6629 60.2253 25.2755 60.4467C25.3682 60.579 25.3983 60.6103 25.5174 60.7197C23.7112 60.4302 19.9974 58.9397 18.4064 58.0621C17.6494 57.7382 16.7627 57.154 16.0546 56.7115C12.6154 54.5618 9.76657 51.5869 7.26387 48.4107C7.15401 48.172 6.41722 47.0122 6.22941 46.6812C5.56067 45.5051 4.9962 44.2727 4.54245 42.9982C4.17063 42.4161 3.50971 40.4415 3.32705 39.7636C2.2599 35.8034 2.33623 31.1346 3.47387 27.2033C4.0722 25.1356 5.49784 22.4116 6.61261 20.5648Z" fill="#58CEF2"/>
<path id="Vector_8" d="M17.8655 57.3973C18.3238 57.2836 18.1485 57.4972 18.5546 57.5767C18.4651 57.474 18.3978 57.4703 18.2612 57.429L18.2766 57.3572L18.3654 57.3035C18.1906 57.0926 17.9009 57.0318 17.7309 56.7699C18.2669 56.5562 21.7286 58.3229 22.4609 58.4389C24.0082 58.684 25.7445 59.3275 27.1953 59.6035L27.0349 59.665L27.0223 59.7613C27.5767 60.233 28.3827 60.2895 28.7932 60.5249C28.1907 60.5397 27.7037 60.5234 27.1057 60.4738C26.6319 60.4345 25.6629 60.2253 25.2755 60.4467C25.3682 60.579 25.3983 60.6103 25.5174 60.7197C23.7112 60.4302 19.9974 58.9397 18.4064 58.0621C18.2554 57.7417 18.0131 57.8187 17.7142 57.5139L17.8655 57.3973Z" fill="#3FBDE3"/>
<path id="Vector_9" d="M4.54245 42.9982C4.72527 43.1079 4.81072 43.1581 4.89646 43.3653C5.67094 45.2369 6.41639 47.0917 7.80391 48.6121C8.06196 48.8949 8.24523 49.3615 8.50705 49.6405C9.5364 50.7373 10.6248 52.0423 11.6996 53.0827C12.72 54.0703 14.1609 54.7128 15.0449 55.8957C15.0825 55.9419 15.9507 56.2727 16.1039 56.3552C16.7091 56.681 17.2475 57.1042 17.8655 57.3973L17.7142 57.5139C18.0131 57.8187 18.2554 57.7417 18.4064 58.0621C17.6494 57.7382 16.7627 57.154 16.0546 56.7115C12.6154 54.5618 9.76657 51.5869 7.26387 48.4107C7.15401 48.172 6.41721 47.0122 6.2294 46.6812C5.56067 45.5051 4.99619 44.2727 4.54245 42.9982Z" fill="#3EB4DC"/>
<path id="Vector_10" d="M30.7865 9.62588C31.7804 9.50078 32.9514 9.51623 33.9583 9.53865C34.186 9.54371 35.2755 9.64666 35.3942 9.63162C36.7562 9.79446 38.2635 9.92434 39.6032 10.1203C40.2112 10.2093 41.6621 10.6481 42.3559 10.8111C43.2622 11.024 44.4604 11.3015 45.3161 11.5207C45.915 11.6741 47.6327 12.5329 48.1869 12.8118C49.0091 13.2255 50.7243 14.0321 51.4424 14.5464C53.0999 15.7337 55.4656 18.0828 56.7675 19.644C57.8078 20.8914 59.6577 24.0361 60.1362 25.5125C60.4795 26.5717 60.5684 29.6512 60.654 30.8608C60.7459 32.1594 60.9269 33.7067 60.9224 35.0046C60.9189 36.0094 60.7593 37.4031 60.6467 38.3936C60.5423 39.3117 60.0698 42.3754 59.6371 42.9526C59.6103 42.8447 60.3199 40.5783 60.3332 40.0267L60.1735 40.0358C60.1074 40.5709 59.5654 40.6137 59.4777 40.9241C59.168 42.0197 59.3856 43.35 58.3417 44.1249C58.0862 44.3145 57.4653 44.6524 57.1113 44.6255L57.0576 44.5888L57.0454 44.3636C56.6931 44.5985 54.3061 47.933 53.8702 48.4714C52.195 50.5407 50.513 51.8276 48.1717 53.0927C46.2647 54.2203 45.2337 55.0014 42.93 55.5618C42.642 55.6319 41.4812 56.0217 41.2566 56.0312C40.5883 56.3738 38.8013 56.6936 38.0021 56.8308C37.7491 56.9826 37.0783 56.8996 36.7835 56.936C36.5608 56.9797 36.3572 57.0583 36.1281 57.0861C34.8947 57.2355 33.7101 57.2777 32.4698 57.2039C31.6291 57.1538 30.7465 57.2251 29.9013 57.1201C28.8388 56.9883 27.7745 56.7882 26.7204 56.5953C26.0511 56.4786 25.3896 56.3219 24.7392 56.1258C24.3472 56.0042 24.1536 55.7903 23.7567 55.9538C23.3023 56.1409 22.8357 55.6594 22.2909 55.7639C21.6296 55.8908 20.719 55.0034 19.9568 55.0544C18.7017 54.4277 18.0737 53.8475 16.9588 53.1567C13.3369 50.9128 10.3956 47.4952 8.42693 43.7339C7.9059 42.7383 7.53225 41.4123 7.245 40.2812C7.06781 39.5816 7.00397 38.8587 6.85918 38.1834C6.40088 36.0452 6.35395 34.0633 6.63633 31.8996C6.70638 31.3627 6.77389 31.0522 6.88434 30.5152C7.20412 29.3968 7.29101 28.2241 7.59808 27.1905C8.87599 22.8888 12.5628 17.2343 16.3674 14.8956C17.1113 14.3114 18.0389 13.7838 18.829 13.2917C21.7575 11.4673 25.2448 10.2737 28.6625 9.83725C29.297 9.75624 30.144 9.62698 30.7865 9.62588Z" fill="#F1F1F1"/>
<path id="Vector_11" d="M30.7865 9.62588C31.7804 9.50078 32.9514 9.51623 33.9583 9.53865C34.186 9.54371 35.2755 9.64666 35.3942 9.63162C35.2948 9.76834 35.2187 9.81373 35.2397 9.94785C35.3188 10.4567 35.8212 10.8397 36.2009 11.1303C36.7897 11.5812 37.3704 11.3661 37.9596 11.5486C37.0789 11.599 36.1677 11.4917 35.2823 11.5013C33.8776 11.5166 32.4795 11.5689 31.0732 11.5873C31.3923 11.6744 32.0267 11.6085 32.1748 11.8476C31.6816 11.8631 29.3843 12.1987 28.9474 12.3726C29.0102 12.4497 29.0747 12.4489 29.1746 12.4691L29.1616 12.548C28.9002 12.5744 28.395 12.4441 28.3296 12.516L28.4629 12.6161C28.1565 12.8974 27.5098 12.8591 27.151 12.7619C27.073 12.7408 26.8778 13.0514 26.6915 13.1042L26.7656 12.9341C26.3963 12.7863 25.2374 13.356 24.9557 13.6456C24.514 13.7451 24.2561 13.8974 23.8924 14.1695L24.0946 14.2162C24.0627 14.6756 24.0507 14.9475 24.075 15.4062C24.1579 16.0717 24.1557 17.2216 24.1685 17.9145C24.1944 19.6232 24.2033 21.3322 24.1954 23.041L24.1964 36.8673L24.1995 45.8744C24.1996 46.7229 24.2481 49.54 24.1389 50.2523C24.149 50.9944 24.1514 51.7397 24.2026 52.48L24.1925 53.6691C25.9111 54.5702 28.2429 54.8138 30.1318 55.2037C31.5575 55.498 33.1812 55.4264 34.6367 55.4592C34.196 55.6816 30.4426 55.4824 29.6621 55.4923C29.4498 55.495 29.466 55.6045 29.4014 55.5874L29.4072 55.5037L29.2991 55.5503C30.2259 55.8653 31.824 55.9835 32.7868 55.9633C32.9962 55.9588 33.3899 56.2095 33.5708 56.2415C33.8714 56.2946 34.2297 56.2625 34.5473 56.3097L34.51 56.3801L34.2428 56.4171L34.2381 56.5126C34.4161 56.5717 34.7293 56.5259 34.8629 56.4376C35.1915 56.2204 35.7051 56.3638 36.1442 56.4192L36.0418 56.2548C36.2935 56.1807 37.3406 56.1928 37.6037 56.258L37.5781 56.3287C37.4249 56.3317 36.6103 56.3149 36.523 56.3622C36.51 56.3553 38.2653 56.5763 38.3711 56.5825C39.1267 56.6266 40.5897 55.9573 41.2566 56.0312C40.5883 56.3738 38.8013 56.6936 38.0021 56.8308C37.7491 56.9826 37.0783 56.8996 36.7835 56.936C36.5608 56.9797 36.3572 57.0583 36.1281 57.0861C34.8947 57.2355 33.7101 57.2777 32.4698 57.2039C31.6291 57.1538 30.7465 57.2251 29.9013 57.1201C28.8388 56.9883 27.7745 56.7882 26.7204 56.5953C26.0511 56.4786 25.3896 56.3219 24.7392 56.1258C24.3472 56.0042 24.1536 55.7903 23.7567 55.9538C23.3023 56.1409 22.8357 55.6594 22.2909 55.7639C21.6296 55.8908 20.719 55.0034 19.9568 55.0544C18.7017 54.4277 18.0737 53.8475 16.9588 53.1567C13.3369 50.9128 10.3956 47.4952 8.42693 43.7339C7.9059 42.7383 7.53225 41.4123 7.245 40.2812C7.06781 39.5816 7.00397 38.8587 6.85918 38.1834C6.40088 36.0452 6.35395 34.0633 6.63633 31.8996C6.70638 31.3627 6.77389 31.0522 6.88434 30.5152C7.20412 29.3968 7.29101 28.2241 7.59808 27.1905C8.87599 22.8888 12.5628 17.2343 16.3674 14.8956C17.1113 14.3114 18.0389 13.7838 18.829 13.2917C21.7575 11.4673 25.2448 10.2737 28.6625 9.83725C29.297 9.75624 30.144 9.62698 30.7865 9.62588Z" fill="#318C45"/>
<path id="Vector_12" d="M30.7865 9.62588C31.7804 9.50078 32.9514 9.51623 33.9583 9.53865C34.186 9.54371 35.2755 9.64666 35.3942 9.63162C35.2948 9.76834 35.2187 9.81373 35.2397 9.94785C35.3188 10.4567 35.8212 10.8397 36.2009 11.1303C36.7897 11.5812 37.3704 11.3661 37.9596 11.5486C37.0789 11.599 36.1677 11.4917 35.2823 11.5013C33.8776 11.5166 32.4795 11.5689 31.0732 11.5873C31.3923 11.6744 32.0267 11.6085 32.1748 11.8476C31.6816 11.8631 29.3843 12.1987 28.9474 12.3726C29.0102 12.4497 29.0747 12.4489 29.1746 12.4691L29.1616 12.548C28.9002 12.5744 28.395 12.4441 28.3296 12.516L28.4629 12.6161C28.1565 12.8974 27.5098 12.8591 27.151 12.7619C27.073 12.7408 26.8778 13.0514 26.6915 13.1042L26.7656 12.9341C26.3963 12.7863 25.2374 13.356 24.9557 13.6456C24.514 13.7451 24.2561 13.8974 23.8924 14.1695L24.0946 14.2162C24.0627 14.6756 24.0507 14.9475 24.075 15.4062C21.8853 15.6419 17.9851 18.6162 16.4243 20.1338C16.1455 20.2791 15.8485 20.6615 15.6315 20.716C15.6986 20.5177 16.5934 19.8733 16.747 19.6301C16.8987 19.3901 17.4798 19.3555 17.0233 18.9931C16.4806 19.3111 15.7253 20.3046 15.2152 20.5218L15.1437 20.4805C13.0921 22.0282 10.9955 26.5031 10.3011 29.0861C7.64176 38.9788 13.0396 48.5861 22.0763 52.7887C22.7517 53.1028 23.4745 53.4708 24.1925 53.6691C25.9111 54.5702 28.2429 54.8138 30.1318 55.2037C31.5575 55.498 33.1812 55.4264 34.6367 55.4592C34.196 55.6816 30.4426 55.4824 29.6621 55.4923C29.4498 55.495 29.466 55.6045 29.4014 55.5874L29.4072 55.5037L29.2991 55.5503C30.2259 55.8653 31.824 55.9835 32.7868 55.9633C32.9962 55.9588 33.3899 56.2095 33.5708 56.2415C33.8714 56.2946 34.2297 56.2625 34.5473 56.3097L34.51 56.3801L34.2428 56.4171L34.2381 56.5126C34.4161 56.5717 34.7293 56.5259 34.8629 56.4376C35.1915 56.2204 35.7051 56.3638 36.1442 56.4192L36.0418 56.2548C36.2935 56.1807 37.3406 56.1928 37.6037 56.258L37.5781 56.3287C37.4249 56.3317 36.6103 56.3149 36.523 56.3622C36.51 56.3553 38.2653 56.5763 38.3711 56.5825C39.1267 56.6266 40.5897 55.9573 41.2566 56.0312C40.5883 56.3738 38.8013 56.6936 38.0021 56.8308C37.7491 56.9826 37.0783 56.8996 36.7835 56.936C36.5608 56.9797 36.3572 57.0583 36.1281 57.0861C34.8947 57.2355 33.7101 57.2777 32.4698 57.2039C31.6291 57.1538 30.7465 57.2251 29.9013 57.1201C28.8388 56.9883 27.7745 56.7882 26.7204 56.5953C26.0511 56.4786 25.3896 56.3219 24.7392 56.1258C24.3472 56.0042 24.1536 55.7903 23.7567 55.9538C23.3023 56.1409 22.8357 55.6594 22.2909 55.7639C21.6296 55.8908 20.719 55.0034 19.9568 55.0544C18.7017 54.4277 18.0737 53.8475 16.9588 53.1567C13.3369 50.9128 10.3956 47.4952 8.42693 43.7339C7.9059 42.7383 7.53225 41.4123 7.245 40.2812C7.06781 39.5816 7.00397 38.8587 6.85918 38.1834C6.40088 36.0452 6.35395 34.0633 6.63633 31.8996C6.70638 31.3627 6.77389 31.0522 6.88434 30.5152C7.20412 29.3968 7.29101 28.2241 7.59808 27.1905C8.87599 22.8888 12.5628 17.2343 16.3674 14.8956C17.1113 14.3114 18.0389 13.7838 18.829 13.2917C21.7575 11.4673 25.2448 10.2737 28.6625 9.83725C29.297 9.75624 30.144 9.62698 30.7865 9.62588Z" fill="#59D4F4"/>
<path id="Vector_13" d="M16.3674 14.8956C17.1113 14.3114 18.0389 13.7838 18.829 13.2917C21.7575 11.4674 25.2448 10.2737 28.6625 9.83725C29.297 9.75625 30.144 9.62698 30.7865 9.62589C30.099 9.93603 27.2336 10.0822 26.2673 10.3741C25.061 10.7385 23.3559 11.1644 22.2205 11.7044C21.4765 12.0583 20.6208 12.769 19.7702 13.1001C19.2284 13.311 17.8266 13.8662 17.4977 14.2984C16.7549 15.5632 15.9776 16.7335 15.1182 17.9152C14.8282 18.314 13.6877 19.4221 13.5866 19.7526C13.2396 20.8871 12.4851 21.1997 11.8182 22.1381C11.1289 23.1081 10.5433 24.2734 9.94007 25.3069C9.64161 25.7985 9.06357 26.2827 8.65197 26.8427C7.99928 27.4207 7.4926 30.7285 7.22237 31.1159C7.10773 30.7867 7.4494 29.8619 7.39484 29.3236C7.21991 29.5736 7.29723 30.0082 6.88434 30.5152C7.20412 29.3968 7.29101 28.2242 7.59808 27.1905C8.87599 22.8888 12.5628 17.2344 16.3674 14.8956Z" fill="#6EDBF2"/>
<path id="Vector_14" d="M7.245 40.2812C7.31186 39.6366 7.36237 39.1496 7.33811 38.4969C7.3232 38.098 7.22292 37.437 7.24117 37.0863L7.35479 37.0304C8.27176 37.7705 7.59206 39.9993 7.64101 41.1232L7.64285 41.1723C7.65755 41.5034 7.94432 42.2299 8.08459 42.5604C9.86645 46.7584 13.2547 50.8057 17.2136 53.1006C17.4869 53.259 18.0859 53.2495 18.3905 53.3829C19.0576 53.5753 22.4027 55.1471 22.8668 55.0132C22.2715 54.8943 21.6299 54.3679 20.9477 54.1783L20.934 54.0787C21.2263 54.0787 23.2989 55.0304 23.7597 55.2036C25.9217 56.0269 28.1522 56.3257 30.3982 56.7988C30.5151 56.8234 30.7362 56.8209 30.8618 56.8248C32.0983 56.8639 33.3709 56.8661 34.6037 56.8993C35.4151 56.9213 37.3213 56.6198 38.0021 56.8308C37.7491 56.9826 37.0783 56.8996 36.7835 56.9361C36.5608 56.9797 36.3572 57.0583 36.1281 57.0861C34.8947 57.2355 33.7101 57.2777 32.4698 57.2039C31.6291 57.1538 30.7465 57.2251 29.9013 57.1201C28.8388 56.9883 27.7745 56.7882 26.7204 56.5953C26.0511 56.4787 25.3896 56.3219 24.7392 56.1259C24.3472 56.0042 24.1536 55.7903 23.7567 55.9538C23.3023 56.1409 22.8357 55.6594 22.2909 55.7639C21.6296 55.8908 20.719 55.0034 19.9568 55.0544C18.7017 54.4277 18.0737 53.8475 16.9588 53.1567C13.3369 50.9128 10.3956 47.4952 8.42693 43.7339C7.9059 42.7384 7.53225 41.4123 7.245 40.2812Z" fill="#6EDBF2"/>
<path id="Vector_15" d="M6.88434 30.5152C7.29723 30.0082 7.21991 29.5736 7.39484 29.3236C7.4494 29.8619 7.10774 30.7867 7.22237 31.1159C7.4926 30.7285 7.99928 27.4206 8.65197 26.8427C8.52182 27.7004 8.25412 28.809 8.10277 29.7447C7.93283 30.7957 7.7741 33.4052 7.53737 34.2441L7.51358 34.0339C7.39095 34.7516 7.32819 36.2711 7.35479 37.0304L7.24117 37.0863C7.22292 37.437 7.3232 38.098 7.33811 38.4968C7.36237 39.1496 7.31186 39.6366 7.245 40.2812C7.06781 39.5816 7.00397 38.8587 6.85918 38.1834C6.40088 36.0452 6.35395 34.0633 6.63633 31.8996C6.70638 31.3627 6.77389 31.0522 6.88434 30.5152Z" fill="#8BF0FE"/>
<path id="Vector_16" d="M23.8924 14.1695L24.0946 14.2162C24.0627 14.6756 24.0507 14.9475 24.075 15.4062C21.8853 15.6419 17.9851 18.6162 16.4243 20.1338C16.1455 20.2791 15.8485 20.6615 15.6315 20.716C15.6986 20.5177 16.5934 19.8733 16.747 19.6301C16.8987 19.3901 17.4798 19.3555 17.0233 18.9931C16.4806 19.3111 15.7253 20.3047 15.2152 20.5218L15.1437 20.4805C16.1861 19.4187 18.7694 17.0798 19.9741 16.2792C20.6564 15.8257 22.9886 14.6688 23.8924 14.1695Z" fill="#154515"/>
<path id="Vector_17" d="M16.4243 20.1338C17.9851 18.6162 21.8853 15.6419 24.075 15.4062C24.1579 16.0717 24.1557 17.2216 24.1685 17.9145C24.1944 19.6232 24.2033 21.3322 24.1954 23.041L24.1964 36.8673L24.1995 45.8744C24.1996 46.723 24.2481 49.54 24.1389 50.2523C24.0685 49.4988 24.1186 48.1446 24.122 47.3215L24.1279 41.9851L24.1219 23.6615C24.121 22.7538 24.1853 18.3084 24.0015 17.8098C23.887 17.4995 20.5453 18.5535 19.8776 18.1052C19.7188 17.9986 19.7046 17.8992 19.6626 17.7267L19.5813 17.7053C19.1421 17.9426 16.9096 19.827 16.5587 20.196L16.4243 20.1338Z" fill="#6AAD75"/>
<path id="Vector_18" d="M35.3942 9.63163C36.7562 9.79446 38.2635 9.92434 39.6032 10.1203C40.2112 10.2093 41.6621 10.6481 42.3559 10.8111C43.2622 11.024 44.4604 11.3015 45.3161 11.5207C45.915 11.6741 47.6327 12.5329 48.1869 12.8118C49.0091 13.2256 50.7243 14.0321 51.4424 14.5464C53.0999 15.7337 55.4656 18.0828 56.7675 19.644C57.8078 20.8914 59.6577 24.0361 60.1362 25.5125C60.4795 26.5717 60.5684 29.6512 60.654 30.8608C60.7459 32.1594 60.9269 33.7067 60.9224 35.0046C60.9189 36.0094 60.7593 37.4031 60.6467 38.3936C60.5423 39.3117 60.0698 42.3754 59.6371 42.9526C59.6103 42.8447 60.3199 40.5783 60.3332 40.0267L60.1735 40.0358C60.1074 40.5709 59.5654 40.6137 59.4777 40.9241C59.168 42.0198 59.3856 43.35 58.3417 44.1249C58.0862 44.3145 57.4653 44.6524 57.1113 44.6255L57.0576 44.5888L57.0454 44.3636C56.6931 44.5985 54.3061 47.933 53.8702 48.4714C52.195 50.5407 50.513 51.8276 48.1717 53.0927C46.2647 54.2203 45.2337 55.0014 42.93 55.5618C42.642 55.6319 41.4812 56.0217 41.2566 56.0312C40.5897 55.9573 39.1267 56.6266 38.3711 56.5825C38.2653 56.5763 36.51 56.3553 36.5231 56.3622C36.6103 56.3149 37.4249 56.3317 37.5781 56.3287L37.6037 56.2581C37.3406 56.1928 36.2935 56.1807 36.0418 56.2548L36.1442 56.4192C35.7051 56.3638 35.1915 56.2204 34.8629 56.4376C34.7293 56.5259 34.4161 56.5717 34.2381 56.5126L34.2428 56.4171L34.51 56.3801L34.5473 56.3097C34.2297 56.2625 33.8714 56.2946 33.5708 56.2415C33.3899 56.2095 32.9962 55.9588 32.7868 55.9633C31.824 55.9835 30.2259 55.8653 29.2991 55.5503L29.4072 55.5037L29.4014 55.5874C29.466 55.6045 29.4498 55.495 29.6621 55.4923C30.4426 55.4824 34.196 55.6816 34.6367 55.4592C36.4873 55.4374 42.0013 54.813 43.5278 53.8488C43.4346 53.5771 43.4326 53.1977 43.4161 52.903C43.5356 42.8704 43.2834 32.6882 43.4238 22.6587C43.3509 20.1271 43.5267 17.6478 43.461 15.129C43.4237 14.8044 43.4175 14.3972 43.4033 14.065C42.1517 13.6658 41.0126 13.28 39.7205 13.0069C38.7427 12.8003 37.597 12.744 36.6598 12.5204C34.92 12.3841 33.4435 12.3514 31.688 12.5212C30.8582 12.6014 30.0512 12.782 29.2708 12.8669C28.8189 13.0158 26.9807 13.4224 26.4792 13.5082C26.0308 13.4484 25.4136 13.5707 24.9557 13.6456C25.2374 13.3561 26.3963 12.7863 26.7656 12.9341L26.6915 13.1042C26.8778 13.0514 27.073 12.7408 27.151 12.7619C27.5098 12.8591 28.1565 12.8974 28.4629 12.6161L28.3296 12.516C28.395 12.4441 28.9002 12.5744 29.1616 12.548L29.1746 12.4691C29.0747 12.4489 29.0102 12.4497 28.9474 12.3726C29.3843 12.1987 31.6816 11.8631 32.1748 11.8476C32.0267 11.6085 31.3923 11.6744 31.0732 11.5873C32.4795 11.5689 33.8776 11.5166 35.2823 11.5013C36.1677 11.4917 37.0789 11.599 37.9596 11.5486C37.3704 11.3661 36.7897 11.5812 36.2009 11.1303C35.8212 10.8397 35.3188 10.4567 35.2397 9.94786C35.2188 9.81374 35.2948 9.76835 35.3942 9.63163Z" fill="#783C37"/>
<path id="Vector_19" d="M35.3942 9.63163C36.7562 9.79446 38.2635 9.92434 39.6032 10.1203C40.2112 10.2093 41.6621 10.6481 42.3559 10.8111C43.2622 11.024 44.4604 11.3015 45.3161 11.5207C45.915 11.6741 47.6327 12.5329 48.1869 12.8118C49.0091 13.2256 50.7243 14.0321 51.4424 14.5464C53.0999 15.7337 55.4656 18.0828 56.7675 19.644C57.8078 20.8914 59.6577 24.0361 60.1362 25.5125C60.4795 26.5717 60.5684 29.6512 60.654 30.8608C60.7459 32.1594 60.9269 33.7067 60.9224 35.0046C60.9189 36.0094 60.7593 37.4031 60.6467 38.3936C60.5423 39.3117 60.0698 42.3754 59.6371 42.9526C59.6103 42.8447 60.3199 40.5783 60.3332 40.0267L60.1735 40.0358C60.1074 40.5709 59.5654 40.6137 59.4777 40.9241C59.168 42.0198 59.3856 43.35 58.3417 44.1249C58.0862 44.3145 57.4653 44.6524 57.1113 44.6255L57.0576 44.5888L57.0454 44.3636C56.6931 44.5985 54.3061 47.933 53.8702 48.4714C52.195 50.5407 50.513 51.8276 48.1717 53.0927C46.2647 54.2203 45.2337 55.0014 42.93 55.5618C42.642 55.6319 41.4812 56.0217 41.2566 56.0312C40.5897 55.9573 39.1267 56.6266 38.3711 56.5825C38.2653 56.5763 36.51 56.3553 36.5231 56.3622C36.6103 56.3149 37.4249 56.3317 37.5781 56.3287L37.6037 56.2581C37.3406 56.1928 36.2935 56.1807 36.0418 56.2548L36.1442 56.4192C35.7051 56.3638 35.1915 56.2204 34.8629 56.4376C34.7293 56.5259 34.4161 56.5717 34.2381 56.5126L34.2428 56.4171L34.51 56.3801L34.5473 56.3097C34.2297 56.2625 33.8714 56.2946 33.5708 56.2415C33.3899 56.2095 32.9962 55.9588 32.7868 55.9633C31.824 55.9835 30.2259 55.8653 29.2991 55.5503L29.4072 55.5037L29.4014 55.5874C29.466 55.6045 29.4498 55.495 29.6621 55.4923C30.4426 55.4824 34.196 55.6816 34.6367 55.4592C36.4873 55.4374 42.0013 54.813 43.5278 53.8488C45.1251 53.3352 45.8953 52.9263 47.3575 52.1296C47.7173 51.8912 48.0823 51.661 48.4525 51.4391C48.5882 51.3146 49.2466 50.8722 49.4425 50.727C50.1869 50.1754 50.9391 49.627 51.6209 48.9959C52.1214 48.4213 52.7777 47.8252 53.2991 47.2291C53.861 46.5866 54.2431 46.0842 54.7423 45.4003C55.2204 44.6845 55.7483 44.0351 56.1492 43.256C58.0589 39.5447 58.6626 36.1242 58.3859 32.0201C58.6128 31.2117 58.2773 30.8087 58.231 30.0104C58.1815 29.1568 58.3047 28.0749 58.1757 27.2433C57.7836 24.7146 55.805 22.7119 54.0185 21.0349C53.8458 20.8739 53.6933 20.4282 53.449 20.1606C53.1893 19.982 52.2676 19.317 52.0079 19.3503C49.8288 17.5426 48.2095 15.9983 45.5312 14.8429C44.8651 14.5556 44.1364 14.171 43.4033 14.065C42.1517 13.6658 41.0126 13.28 39.7205 13.0069C38.7427 12.8003 37.597 12.744 36.6598 12.5204C34.92 12.3841 33.4435 12.3514 31.688 12.5212C30.8582 12.6014 30.0512 12.782 29.2708 12.8669C28.8189 13.0158 26.9807 13.4224 26.4792 13.5082C26.0308 13.4484 25.4136 13.5707 24.9557 13.6456C25.2374 13.3561 26.3963 12.7863 26.7656 12.9341L26.6915 13.1042C26.8778 13.0514 27.073 12.7408 27.151 12.7619C27.5098 12.8591 28.1565 12.8974 28.4629 12.6161L28.3296 12.516C28.395 12.4441 28.9002 12.5744 29.1616 12.548L29.1746 12.4691C29.0747 12.4489 29.0102 12.4497 28.9474 12.3726C29.3843 12.1987 31.6816 11.8631 32.1748 11.8476C32.0267 11.6085 31.3923 11.6744 31.0732 11.5873C32.4795 11.5689 33.8776 11.5166 35.2823 11.5013C36.1677 11.4917 37.0789 11.599 37.9596 11.5486C37.3704 11.3661 36.7897 11.5812 36.2009 11.1303C35.8212 10.8397 35.3188 10.4567 35.2397 9.94786C35.2188 9.81374 35.2948 9.76835 35.3942 9.63163Z" fill="#6EE7F9"/>
<path id="Vector_20" d="M24.9557 13.6456C25.2374 13.3561 26.3963 12.7863 26.7656 12.9341L26.6915 13.1042C26.8778 13.0514 27.073 12.7408 27.151 12.7619C27.5098 12.8592 28.1565 12.8974 28.4629 12.6161L28.3296 12.516C28.395 12.4441 28.9002 12.5744 29.1616 12.548L29.1746 12.4691C29.0747 12.4489 29.0102 12.4497 28.9474 12.3726C29.3843 12.1987 31.6816 11.8631 32.1748 11.8476C32.0267 11.6085 31.3923 11.6744 31.0732 11.5873C32.4795 11.5689 33.8776 11.5166 35.2823 11.5013C36.1677 11.4917 37.0789 11.599 37.9596 11.5486C39.6169 11.5624 41.0398 12.2566 42.618 12.5967C45.5461 13.2275 48.1925 14.6498 50.7159 16.2183C51.6425 16.7911 52.1439 17.5004 52.8257 18.3227C55.3293 20.8669 57.6073 23.7018 58.6097 27.1923C58.7193 27.5741 59.151 28.8412 58.9377 29.1875L58.8464 29.1393C58.8554 28.9408 58.8316 28.8875 58.7343 28.715C58.6111 28.7294 58.6493 28.7258 58.5397 28.8384C58.4498 28.7039 58.3802 28.5467 58.4434 28.3774C58.7312 27.6069 58.5221 27.596 58.3551 26.9201C57.8789 24.9925 55.4896 20.6253 53.646 19.8555L53.6669 19.9117C53.7005 20.0035 53.7256 20.0946 53.7523 20.1884C53.6022 20.1936 53.5968 20.1917 53.449 20.1606C53.1893 19.982 52.2676 19.317 52.0079 19.3504C49.8288 17.5426 48.2095 15.9984 45.5312 14.8429C44.8651 14.5556 44.1364 14.171 43.4033 14.065C42.1517 13.6658 41.0126 13.28 39.7205 13.0069C38.7427 12.8003 37.597 12.744 36.6598 12.5204C34.92 12.3841 33.4435 12.3514 31.688 12.5212C30.8582 12.6014 30.0512 12.782 29.2708 12.8669C28.8189 13.0158 26.9807 13.4224 26.4792 13.5082C26.0308 13.4484 25.4136 13.5707 24.9557 13.6456Z" fill="#6EDBF2"/>
<path id="Vector_21" d="M29.2708 12.8669C29.6448 12.4921 32.396 12.1339 33.0159 12.101C33.8781 12.0553 35.9108 12.1155 36.6598 12.5204C34.92 12.3841 33.4435 12.3514 31.688 12.5212C30.8582 12.6014 30.0512 12.782 29.2708 12.8669Z" fill="#2489B1"/>
<path id="Vector_22" d="M54.7423 45.4003L54.7819 45.5549L54.7636 45.5813C54.3521 46.185 54.225 47.1204 53.8057 47.8825C53.6348 48.0011 51.6803 48.9995 51.6209 48.9959C52.1214 48.4213 52.7777 47.8252 53.2991 47.2291C53.861 46.5866 54.2431 46.0842 54.7423 45.4003Z" fill="#6EDBF2"/>
<path id="Vector_23" d="M48.4525 51.4391L48.484 51.5763C48.3438 51.7327 48.2781 51.7578 48.0981 51.8518L48.3672 51.9807C48.1592 52.2819 47.698 52.1477 47.3575 52.1296C47.7173 51.8912 48.0823 51.661 48.4525 51.4391Z" fill="#6EDBF2"/>
<path id="Vector_24" d="M43.461 15.129C46.3704 15.6389 48.2107 17.5766 50.4189 19.3677C51.777 20.4693 52.5703 21.7707 53.7049 23.0945L53.6861 23.1087C53.4237 22.8609 52.4327 21.7637 52.2763 21.7296C51.401 21.9021 51.3058 21.9231 50.4181 21.7237C49.5401 21.5266 44.1134 18.4735 43.5595 19.2622C43.4951 19.9627 43.7363 22.2938 43.4238 22.6587C43.3509 20.1271 43.5267 17.6478 43.461 15.129Z" fill="#966F6C"/>
<path id="Vector_25" d="M52.0079 19.3504C52.2676 19.317 53.1893 19.982 53.449 20.1606C53.6933 20.4282 53.8458 20.8739 54.0185 21.0349C55.805 22.7119 57.7836 24.7146 58.1757 27.2433C58.3047 28.0749 58.1815 29.1568 58.231 30.0104C58.2773 30.8087 58.6128 31.2117 58.3859 32.0201C57.9666 28.3148 56.5134 24.8022 54.1922 21.8837C53.5719 21.0953 52.5236 20.1266 52.0079 19.3504Z" fill="#2BCFEE"/>
<path id="Vector_26" d="M24.2026 52.48C24.5333 52.852 24.1777 53.4235 24.701 53.5095C24.9227 53.5458 25.1476 53.497 25.3965 53.5724C26.888 54.0241 28.3279 54.6804 29.9024 54.7812C30.0708 54.7919 30.405 54.9026 30.5146 54.8193L30.4721 54.709C30.8735 54.606 31.0707 54.9853 31.3605 55.0056C33.5915 55.1612 35.8364 54.9599 38.0709 54.9849C38.1292 54.9856 38.3627 54.8209 38.4107 54.7869C39.1971 54.8816 39.1588 54.7712 39.8486 54.4723C40.5532 54.1669 41.2854 53.8941 42.0151 53.6575L42.0581 53.6017C41.8979 53.5426 41.8715 53.5523 41.7037 53.5923L41.6559 53.5446L41.8033 53.3945L41.7754 53.3327L41.5206 53.2976C41.9049 53.0863 42.9815 53.0935 43.4161 52.9031C43.4326 53.1977 43.4346 53.5771 43.5278 53.8488C42.0013 54.813 36.4873 55.4374 34.6367 55.4592C33.1812 55.4264 31.5575 55.498 30.1318 55.2037C28.2429 54.8138 25.9111 54.5702 24.1925 53.6691L24.2026 52.48Z" fill="#C6C7C8"/>
<path id="Vector_27" d="M24.9557 13.6456C25.4136 13.5707 26.0308 13.4484 26.4792 13.5082C25.7964 13.7154 24.7669 14.0583 24.0946 14.2162L23.8924 14.1695C24.2561 13.8974 24.514 13.7452 24.9557 13.6456Z" fill="#2489B1"/>
<path id="Vector_28" d="M41.2566 56.0312C41.4812 56.0217 42.642 55.6319 42.93 55.5618C45.2337 55.0014 46.2647 54.2203 48.1717 53.0927C50.513 51.8276 52.195 50.5407 53.8702 48.4714C54.3061 47.933 56.6931 44.5985 57.0454 44.3636L57.0576 44.5888C57.0488 44.5939 57.0399 44.599 57.031 44.6041C54.9536 46.9608 53.4723 49.7964 50.8236 51.6457C49.9516 52.2642 48.9835 52.732 48.0815 53.2984C47.0505 53.9458 46.0748 54.6414 44.9308 55.0893C44.044 55.4364 43.0289 55.5978 42.1548 55.9526C41.463 56.2334 40.7481 56.4228 40.0691 56.7053L39.8132 56.6269C39.0645 57.1052 38.3624 57.0961 37.5298 57.2684C34.5708 57.8808 31.7775 57.7596 28.8042 57.5032C26.7753 57.3282 25.9258 57.1771 23.9806 56.5308C22.4785 56.0317 21.4374 55.8261 19.9568 55.0544C20.719 55.0034 21.6296 55.8908 22.2909 55.7639C22.8357 55.6594 23.3023 56.1409 23.7567 55.9538C24.1536 55.7903 24.3472 56.0042 24.7392 56.1259C25.3896 56.3219 26.0511 56.4787 26.7204 56.5953C27.7745 56.7882 28.8388 56.9883 29.9013 57.1201C30.7465 57.2251 31.6291 57.1538 32.4698 57.2039C33.7101 57.2777 34.8947 57.2355 36.1281 57.0861C36.3572 57.0583 36.5608 56.9797 36.7835 56.936C37.0783 56.8996 37.7491 56.9826 38.0021 56.8308C38.8013 56.6936 40.5883 56.3739 41.2566 56.0312Z" fill="#8BF0FE"/>
</g>
<defs>
<clipPath id="clip0_0_4">
<rect width="70" height="70" fill="white"/>
</clipPath>
</defs>
</svg>
