<svg preserveAspectRatio="none" width="100%" height="100%" overflow="visible" style="display: block;" viewBox="0 0 70 70" fill="none" xmlns="http://www.w3.org/2000/svg">
<g id="PORTUGUESE [Vectorized]" clip-path="url(#clip0_0_4)">
<path id="Vector" d="M32.7474 0H37.2503C37.2602 0.00699761 37.2698 0.0144841 37.2801 0.0209928C37.4363 0.120027 40.5742 0.395713 41.1106 0.483664C42.2915 0.677281 43.4716 0.982495 44.6199 1.31804C56.664 4.77039 65.9632 14.3674 69.0341 26.5142C69.4169 28.0062 69.6397 29.7327 69.8435 31.2687C69.8899 31.6185 69.8646 32.5739 70 32.7501V37.362C69.6343 39.6915 69.611 41.0082 69.0033 43.4676C66.9944 51.4764 62.2262 58.5205 55.5373 63.3613C51.5047 66.2949 46.8626 68.2724 41.9973 69.3349C41.3367 69.4798 38.4195 69.8113 38.0369 70H31.8274C30.936 69.7628 29.8938 69.6609 28.9797 69.4894C27.95 69.2959 26.9046 69.0648 25.8934 68.7914C14.0703 65.6212 4.76752 56.4961 1.36986 44.7362C0.797398 42.7473 0.380503 40.8381 0.188949 38.7803C0.157635 38.4439 0.139539 37.5074 0 37.3038V32.7605C0.166139 32.5509 0.0915462 32.3338 0.109321 32.0841C0.235155 30.3156 0.519546 28.4091 0.944467 26.6935C3.9388 14.5068 13.2071 4.84328 25.2582 1.3429C26.5159 0.975071 27.7952 0.68492 29.0886 0.4741C29.581 0.394029 32.5848 0.107811 32.7181 0.0211859C32.7282 0.0146112 32.7376 0.00706193 32.7474 0Z" fill="transparent"/>
<path id="Vector_2" d="M5.27454 24.3445C5.79729 22.6703 7.21581 20.6275 8.21146 19.155C10.4492 15.8322 13.3756 13.0296 16.7921 10.9376C18.7 9.79432 22.6499 7.8806 24.7619 7.31315C30.5964 5.78464 36.9199 5.09818 42.8066 6.71763C45.8363 7.55111 49.7412 8.7919 52.3563 10.5651C56.0152 12.7304 59.9602 16.2383 62.3236 19.7727C63.2991 21.2315 64.8855 24.5065 65.4423 26.1998C65.7568 26.8825 65.9945 27.8061 66.1695 28.5651C67.3192 33.5527 67.0474 38.866 65.4238 43.7138C65.1649 44.487 63.965 47.1961 63.5503 47.7797C63.3551 48.3252 62.7154 49.3497 62.4039 49.8365C59.9873 53.6143 54.5208 58.3632 50.4522 60.253C50.3913 60.2812 50.3289 60.3058 50.2653 60.3269C47.4276 61.855 43.476 62.8798 40.2948 63.4085C39.9415 63.4673 38.8969 63.5528 38.6273 63.6669C38.3529 63.6338 38.064 63.6619 37.788 63.6787C34.7856 63.862 31.7199 63.8211 28.7619 63.1932C24.3725 62.4097 21.1754 61.2244 17.2512 59.073C16.6508 58.6914 15.9311 58.2565 15.3874 57.8076C14.0504 56.9788 12.3481 55.3774 11.287 54.2197C11.2746 54.213 11.2622 54.2063 11.2498 54.1997C9.29783 52.4339 7.1413 49.1753 5.89881 46.9042C5.32476 45.8551 4.35207 42.7978 4.05922 41.7473C3.07102 38.4933 2.84233 34.2608 3.35272 30.9146C3.61479 29.1964 4.62052 25.9515 5.27454 24.3445Z" fill="transparent"/>
<path id="Vector_3" d="M5.27454 24.3446C5.82936 23.8102 6.04608 22.6652 6.44757 22.1214C7.14895 21.1714 8.21666 19.1645 9.00778 18.4378L9.13076 18.4766C8.95843 19.0721 8.6059 19.4049 8.35721 19.8905C6.94579 22.6464 5.5247 25.3989 4.75377 28.4151C4.66305 28.7701 4.29079 29.7423 4.44465 30.0312C4.61624 29.6596 4.58901 29.0973 4.75594 28.7621H4.79023C5.14211 29.2683 4.44106 29.4349 5.57765 30.0103C6.02158 30.2351 5.61522 31.8475 5.74891 32.6264C5.58371 34.7596 5.64909 37.9819 6.27029 40.0409C6.99139 42.4309 8.12499 45.8332 9.33434 48.0262C9.92353 49.0944 11.5803 50.8828 12.4156 51.9507C12.8269 52.309 13.6175 53.22 14.0701 53.4733C14.4451 53.657 15.3031 54.3309 15.6458 54.6182C18.0808 56.6597 20.8895 57.865 23.8799 58.8585C24.5335 59.0756 25.2913 59.2122 25.9551 59.4178C27.5319 59.9724 29.0432 60.3989 30.6996 60.6562C31.0789 60.7152 31.7827 61.2112 32.1769 61.3467C32.7542 61.5793 33.9317 61.6693 34.574 61.6833C36.929 61.7345 39.2408 61.309 41.4975 60.665C42.1533 60.4779 42.9295 60.4025 43.607 60.1689C44.9954 59.6901 46.6138 59.2625 47.9777 58.7593C48.6587 58.5079 49.4048 57.7364 50.4001 57.4736C51.136 57.2987 52.4926 56.0913 53.1166 55.6357C53.6836 55.2219 54.1697 54.8849 54.6649 54.3756C54.8108 54.2255 55.1843 54.0942 55.3364 53.9143C55.8249 53.2939 56.6208 52.8043 57.1292 52.275C59.4496 49.8589 60.9117 47.1029 62.2194 44.0403C62.29 44.6582 60.2782 48.3431 59.8235 49.0571C59.323 49.8431 58.4233 50.8097 58.0167 51.7575C57.9962 51.8053 57.8108 52.0818 57.7796 52.1389C57.827 52.285 57.899 52.2566 57.8488 52.4264C57.4523 52.7812 56.0766 53.974 55.8778 54.3822L55.8772 54.5005C56.302 54.4148 56.4834 53.5958 57.2407 53.8238C57.5514 53.7204 57.4541 53.7662 57.6526 53.4232L57.7199 53.6048C58.3614 52.8917 59.0138 52.2735 59.6706 51.5774C60.0436 51.182 60.8758 49.7403 61.288 49.6562C61.4642 50.0069 60.7828 50.5819 60.5992 50.9022C60.2488 51.514 59.8495 52.0952 59.4212 52.6568C59.5429 52.6655 59.6845 52.6548 59.8082 52.65L59.7718 52.8462L59.8294 52.8435C60.4715 52.2456 62.102 50.18 62.4457 49.3971L62.1717 49.5825L62.1022 49.553C62.4189 48.9731 62.5434 48.9619 63.0429 48.5438C63.265 48.358 63.2775 47.8046 63.5035 47.6655L63.5503 47.7797C63.3551 48.3252 62.7154 49.3497 62.4039 49.8365C59.9873 53.6143 54.5208 58.3632 50.4522 60.253C50.3913 60.2812 50.3289 60.3058 50.2653 60.3269C47.4276 61.855 43.476 62.8798 40.2948 63.4085C39.9415 63.4673 38.8969 63.5528 38.6273 63.6669C38.3529 63.6338 38.064 63.6619 37.788 63.6787C34.7856 63.862 31.7199 63.8211 28.7619 63.1933C24.3725 62.4097 21.1754 61.2244 17.2512 59.073C16.6508 58.6914 15.9311 58.2565 15.3874 57.8076C14.0504 56.9788 12.3481 55.3774 11.287 54.2197C11.2746 54.213 11.2622 54.2063 11.2498 54.1997C9.29783 52.4339 7.1413 49.1753 5.89881 46.9042C5.32476 45.8551 4.35207 42.7978 4.05922 41.7473C3.07102 38.4933 2.84233 34.2608 3.35272 30.9146C3.61479 29.1964 4.62052 25.9515 5.27454 24.3446Z" fill="#58C6E5"/>
<path id="Vector_4" d="M5.27454 24.3446C5.82936 23.8102 6.04608 22.6652 6.44757 22.1214C7.14895 21.1714 8.21666 19.1645 9.00778 18.4378L9.13076 18.4766C8.95843 19.0721 8.6059 19.4049 8.35721 19.8905C6.94579 22.6464 5.5247 25.3989 4.75377 28.4151C4.66305 28.7701 4.29079 29.7423 4.44465 30.0312C4.61624 29.6596 4.58901 29.0973 4.75594 28.7621H4.79023C5.14211 29.2683 4.44106 29.4349 5.57765 30.0103C6.02158 30.2351 5.61522 31.8475 5.74891 32.6264C5.58371 34.7596 5.64909 37.9819 6.27029 40.0409C6.99139 42.4309 8.12499 45.8332 9.33434 48.0262C9.92353 49.0944 11.5803 50.8828 12.4156 51.9507C12.4485 52.2315 14.467 54.6213 14.7867 54.9495C15.2651 55.4392 15.7744 55.8977 16.3115 56.3222C18.382 57.9647 20.8372 59.1324 23.2669 60.1323C23.5134 60.2337 26.4759 61.2858 26.4835 61.294C26.0632 61.5741 24.3048 60.7481 23.7828 60.6011C20.6362 59.7149 17.6894 57.922 15.0992 55.992C14.9704 56.0844 14.9366 56.3732 14.8445 56.5854C14.778 56.0296 12.8876 54.8769 12.4379 54.4162C12.1529 54.1243 12.0433 53.7329 11.7511 53.4639L11.5498 53.5054L11.4455 53.4361L11.6401 53.3686L11.6247 53.2913C11.4763 53.1588 11.4378 53.11 11.2392 53.0751C11.0435 53.3267 11.3357 53.1463 11.1282 53.601C10.6028 53.1484 10.2116 52.435 9.67408 51.9034C9.16638 51.4013 8.79047 50.1741 8.35495 49.5627C8.05902 49.147 7.78661 49.1803 7.43442 48.9094C6.97163 48.5535 6.6967 47.9279 6.39446 47.4378C5.89859 46.8178 4.29517 41.7061 4.14721 41.5998L4.05922 41.7473C3.07102 38.4933 2.84233 34.2608 3.35272 30.9146C3.61479 29.1964 4.62052 25.9515 5.27454 24.3446Z" fill="#5DD6F5"/>
<path id="Vector_5" d="M14.0701 53.4733C14.4451 53.6571 15.3031 54.3309 15.6458 54.6182C18.0809 56.6597 20.8895 57.8651 23.8799 58.8585C24.5335 59.0756 25.2913 59.2122 25.9551 59.4178C27.5319 59.9724 29.0432 60.3989 30.6996 60.6562C31.0789 60.7152 31.7827 61.2112 32.1769 61.3467C32.7542 61.5793 33.9317 61.6693 34.574 61.6833C36.929 61.7345 39.2408 61.309 41.4975 60.6651C42.1533 60.4779 42.9295 60.4025 43.607 60.1689C44.9954 59.6901 46.6138 59.2625 47.9777 58.7593C48.6587 58.5079 49.4048 57.7364 50.4001 57.4736C50.3821 57.4915 50.364 57.5092 50.3459 57.5271C48.9965 58.6632 47.0561 59.5042 45.4177 60.1645C45.0981 60.2932 43.8642 60.4036 43.4651 60.5264C43.0975 60.6394 42.8409 60.779 42.5015 60.9128C42.0034 61.1078 41.4907 61.2634 40.9683 61.3782C38.1163 62.0251 34.825 61.901 31.9294 61.8149C29.6995 61.7485 28.3117 61.6782 26.2726 60.742C25.9159 60.5858 24.6332 60.4689 24.3927 60.3053C23.4545 59.6671 21.9233 59.2173 21.025 58.7208C19.7614 58.0225 18.5209 57.1808 17.2738 56.48C16.4321 56.0069 14.702 54.2549 14.0701 53.4733Z" fill="#9FEEFD"/>
<path id="Vector_6" d="M4.05922 41.7473L4.14721 41.5998C4.29517 41.706 5.89859 46.8178 6.39446 47.4378C6.6967 47.9279 6.97163 48.5535 7.43442 48.9093C7.78661 49.1803 8.05902 49.147 8.35495 49.5627C8.79047 50.1741 9.16638 51.4013 9.67408 51.9033C10.2116 52.435 10.6028 53.1484 11.1282 53.601C11.3357 53.1463 11.0435 53.3267 11.2392 53.0751C11.4378 53.11 11.4763 53.1588 11.6247 53.2913L11.6401 53.3686L11.4455 53.4361L11.5498 53.5054L11.7511 53.4639C12.0433 53.7328 12.1529 54.1243 12.4379 54.4162C12.8876 54.8768 14.778 56.0296 14.8445 56.5854C18.3801 59.0179 22.2964 60.8439 26.4326 61.9881C27.5214 62.2969 28.4287 62.5971 29.5774 62.7092C29.8082 62.7317 31.2648 62.8666 31.3867 62.9248C30.809 63.1153 29.0801 62.6694 28.7619 63.1932C24.3725 62.4097 21.1754 61.2244 17.2512 59.073C16.6508 58.6914 15.9311 58.2565 15.3874 57.8076C14.0504 56.9788 12.3481 55.3774 11.287 54.2197C11.2746 54.213 11.2622 54.2063 11.2498 54.1997C9.29783 52.4339 7.1413 49.1753 5.89881 46.9042C5.32477 45.8551 4.35207 42.7978 4.05922 41.7473Z" fill="#34A6D1"/>
<path id="Vector_7" d="M11.287 54.2197C11.8078 54.4091 15.1985 57.4016 15.3874 57.8076C14.0504 56.9788 12.3481 55.3774 11.287 54.2197Z" fill="#3B8EB7"/>
<path id="Vector_8" d="M59.4212 52.6568C59.5429 52.6655 59.6845 52.6548 59.8082 52.6501L59.7718 52.8462L59.8294 52.8435C60.4715 52.2456 62.102 50.18 62.4457 49.3971L62.1717 49.5825L62.1022 49.553C62.4189 48.9731 62.5434 48.9619 63.0429 48.5438C63.265 48.358 63.2775 47.8046 63.5035 47.6655L63.5503 47.7797C63.3551 48.3252 62.7154 49.3497 62.4039 49.8365C59.9873 53.6143 54.5208 58.3632 50.4522 60.2531C50.3913 60.2812 50.3289 60.3058 50.2653 60.3269L50.2461 60.2302C50.0376 60.242 49.5406 60.5918 49.2642 60.6158C47.8709 60.7368 43.3089 62.7498 42.1868 62.4966L42.1601 62.4086C42.5274 62.1396 44.5728 61.5751 45.0887 61.3902C46.0007 61.0633 46.9712 60.7251 47.8884 60.3967C48.5207 60.1704 49.0871 59.835 49.6891 59.5654C51.5817 58.7178 53.2296 57.7272 54.8877 56.4763C55.5875 55.9483 56.2581 55.2578 56.9397 54.7154C57.8156 54.0183 58.599 53.4321 59.4212 52.6568Z" fill="#34A6D1"/>
<path id="Vector_9" d="M5.27454 24.3445C5.79729 22.6703 7.21581 20.6275 8.21146 19.155C10.4492 15.8322 13.3756 13.0296 16.7921 10.9376C18.7 9.79432 22.6499 7.8806 24.7619 7.31315C30.5964 5.78464 36.9199 5.09818 42.8066 6.71763C45.8363 7.55111 49.7412 8.7919 52.3563 10.5651L52.3344 10.6389C52.2447 10.6229 52.1706 10.6094 52.0814 10.5867L52.013 10.6187L52.0143 10.7124C52.3599 11.0249 52.6459 10.9024 52.8633 11.2278C52.8069 11.3712 52.7755 11.4224 52.8168 11.5736L52.8672 11.5961C54.6661 12.4198 58.7403 16.2224 60.0232 17.8341C60.5776 18.5307 61.0436 19.372 61.5102 20.1314C61.7239 20.479 62.0564 20.8417 62.1893 21.2235C62.2087 21.2795 62.1924 21.2857 62.17 21.3371C61.8073 21.0092 60.7605 19.2788 60.4133 18.7759C59.783 17.8628 59.1613 17.1499 58.3978 16.3289C53.1759 10.8597 45.2039 6.82239 37.5491 6.90395C36.834 6.91161 36.1217 7.02556 35.397 7.02632C32.6827 7.02926 29.9415 7.06296 27.2973 7.75161C26.5995 7.93338 25.8511 8.42016 25.1483 8.63454C21.4907 9.87089 18.2956 11.1696 15.3422 13.7409C14.9126 14.1149 13.9697 14.8478 13.6369 15.2419C11.8142 17.4005 9.46449 20.4679 8.18603 22.9371C7.69159 23.8921 6.58247 27.7823 6.33041 28.9288C6.15795 29.6894 6.02178 30.4578 5.92237 31.2313C5.8792 31.5614 5.81213 32.3662 5.74891 32.6264C5.61522 31.8475 6.02158 30.2351 5.57765 30.0103C4.44106 29.4349 5.14211 29.2683 4.79023 28.7621H4.75594C4.58901 29.0973 4.61624 29.6596 4.44465 30.0312C4.29079 29.7423 4.66305 28.7701 4.75377 28.4151C5.5247 25.3989 6.94579 22.6464 8.35721 19.8905C8.6059 19.4049 8.95843 19.0721 9.13076 18.4766L9.00778 18.4378C8.21666 19.1645 7.14895 21.1714 6.44757 22.1214C6.04608 22.6652 5.82936 23.8102 5.27454 24.3445Z" fill="#9BE8FA"/>
<path id="Vector_10" d="M64.2137 23.6369C64.5165 24.1635 65.1648 25.987 65.4423 26.1998C65.7568 26.8825 65.9945 27.8061 66.1695 28.5651C67.3192 33.5527 67.0474 38.866 65.4238 43.7138C65.1649 44.487 63.965 47.1961 63.5503 47.7797L63.5035 47.6655C63.2775 47.8046 63.265 48.358 63.0429 48.5438C62.5434 48.9619 62.419 48.9731 62.1022 49.553L62.1717 49.5825L62.4457 49.3971C62.102 50.18 60.4715 52.2456 59.8294 52.8435L59.7718 52.8462L59.8082 52.65C59.6845 52.6548 59.5429 52.6655 59.4212 52.6568C59.8495 52.0952 60.2488 51.514 60.5992 50.9022C60.7828 50.5819 61.4642 50.0069 61.288 49.6562C60.8758 49.7403 60.0436 51.182 59.6706 51.5774C59.0138 52.2735 58.3614 52.8917 57.7199 53.6048L57.6526 53.4232C57.4541 53.7662 57.5514 53.7204 57.2407 53.8238C56.4834 53.5958 56.302 54.4148 55.8772 54.5005L55.8778 54.3822C56.0766 53.974 57.4523 52.7812 57.8488 52.4264C57.899 52.2566 57.827 52.285 57.7796 52.1389C57.8108 52.0818 57.9962 51.8053 58.0167 51.7575C58.4233 50.8097 59.323 49.8431 59.8235 49.0571C60.2782 48.3431 62.29 44.6582 62.2194 44.0403C62.2485 43.8784 62.5399 43.0311 62.6173 42.7686C63.9829 38.0531 64.3103 32.7487 63.6303 27.892C63.5783 27.5209 62.6781 24.3579 62.4978 24.053C63.4328 25.5404 63.9819 28.9472 64.0531 30.6827C64.0696 31.0846 64.0398 31.5219 64.0638 31.9586L64.1434 31.9576C64.143 31.4925 64.136 31.5468 64.4665 31.2498C64.6233 30.8828 64.8188 29.175 64.9487 28.6704C65.0945 28.1045 64.3131 26.3654 64.2614 25.7067C64.2167 25.1368 64.3662 24.1514 64.2137 23.6369Z" fill="#70D9F4"/>
<path id="Vector_11" d="M52.3563 10.5651C56.0152 12.7304 59.9602 16.2383 62.3236 19.7727C63.2991 21.2315 64.8855 24.5065 65.4423 26.1998C65.1648 25.987 64.5165 24.1635 64.2137 23.6369C64.1532 23.2908 63.5911 22.4662 63.4393 22.1102C61.9137 18.5313 58.9356 15.7624 56.016 13.2894C55.8445 13.3436 55.7893 13.3664 55.6105 13.3716L55.532 13.2815L55.5839 12.9945C55.431 12.6226 52.836 11.092 52.3556 10.6583L52.3344 10.6389L52.3563 10.5651Z" fill="#5DD6F5"/>
<path id="Vector_12" d="M21.7967 11.5935C23.7433 10.5306 27.2662 9.7596 29.5063 9.43756C38.6705 8.12 48.2232 10.0003 55.1072 16.5019C55.2742 16.6592 55.5951 16.9312 55.7836 17.0686C57.4626 18.2823 58.1419 19.3159 59.0822 21.0858C59.2825 21.4627 59.6058 21.909 59.6785 22.3058C59.7351 22.6151 59.7381 22.9778 59.8892 23.2394L59.9101 23.2765C60.1766 23.7401 60.6569 23.9969 61.006 24.4994C62.2392 26.2746 62.5567 27.6905 62.573 29.8318C62.5757 30.1942 62.6577 30.8129 62.6335 31.1058C62.7581 31.9854 62.9501 34.3067 62.7522 35.1057C62.5455 41.7117 60.2051 47.8054 55.2817 52.3138C53.0721 54.3372 51.5028 55.7238 48.6605 56.8818C46.9155 57.5927 45.1282 58.3728 43.2688 58.8423C40.4189 59.4794 36.1348 59.7135 33.2327 59.624C27.2548 59.4543 21.4527 57.5641 16.5221 54.1798C15.3653 53.3905 14.2842 52.658 13.3178 51.6249C9.60463 47.7066 7.38425 42.6096 7.04375 37.2221C6.65337 35.9998 7.07889 31.4984 7.33065 30.1118C7.40783 29.278 7.62152 28.4663 7.78675 27.6486C9.27999 20.2584 15.1262 14.7577 21.7967 11.5935Z" fill="#5DD6F5"/>
<path id="Vector_13" d="M24.3003 10.9691C24.5532 10.9758 24.5762 10.8482 24.8812 10.9774L24.8487 10.9922C24.9689 11.0671 24.9917 11.0548 25.1407 11.0456C25.2671 10.9218 25.3034 10.8631 25.4724 10.827L25.3013 11.0377L25.3552 11.0839L25.9312 10.9517L25.9472 10.9919L25.8445 11.1219C26.4249 11.078 26.9377 10.822 27.4813 10.7453C28.3287 10.6257 29.2106 10.7649 30.0781 10.7898C30.5317 11.099 31.5999 10.5692 32.0742 10.9536L32.1081 11.1277C31.8668 11.1348 31.9289 10.8949 31.7243 10.9568L31.8369 11.0826C31.3269 11.3463 29.6866 11.3364 29.0805 11.4107C27.7775 11.5707 26.4327 11.9478 25.1617 12.2931C24.6161 12.4414 23.966 12.9583 23.4307 13.1698C21.8365 13.9002 20.3627 14.4936 18.9287 15.5494C17.9921 16.239 17.1456 17.0245 16.2319 17.7535C15.6369 18.2283 14.653 18.7346 14.1115 19.2108C12.049 21.0248 10.8232 24.141 9.88894 26.6739C9.78134 26.9657 9.28293 28.4223 9.09104 28.5193C9.27452 27.9521 9.48794 27.0344 9.44986 26.439C8.77023 27.3 8.25768 28.0035 7.9437 29.0823C7.90262 29.2236 7.8037 29.6301 7.74717 29.7363C7.4794 29.8422 7.59671 29.9986 7.33065 30.1118C7.40783 29.278 7.62152 28.4663 7.78675 27.6486C9.27999 20.2584 15.1262 14.7577 21.7967 11.5935C22.4911 11.5631 23.648 10.7693 24.134 11.0265L24.3003 10.9691Z" fill="#92E9FC"/>
<path id="Vector_14" d="M21.7967 11.5935C23.7433 10.5306 27.2662 9.7596 29.5063 9.43756C38.6705 8.12 48.2232 10.0003 55.1072 16.5019C55.2742 16.6592 55.5951 16.9312 55.7836 17.0686C57.4626 18.2823 58.1419 19.3159 59.0822 21.0858C59.2825 21.4627 59.6058 21.909 59.6785 22.3058C59.7351 22.6151 59.7381 22.9778 59.8892 23.2394L59.9101 23.2765C60.1766 23.7401 60.6569 23.9969 61.006 24.4994C62.2392 26.2746 62.5567 27.6905 62.573 29.8318C62.5757 30.1942 62.6577 30.8129 62.6335 31.1058C62.7581 31.9854 62.9501 34.3067 62.7522 35.1057C62.615 33.3994 62.5805 31.1706 62.0653 29.5296C61.8358 28.7989 60.7634 27.345 60.5643 26.6208C60.0349 24.6952 59.9674 23.5635 58.3864 22.1316C57.6579 21.4204 56.7683 19.6566 55.9042 18.8312C54.7505 17.7293 53.4162 16.8679 52.2126 15.819L52.3122 15.797C53.0047 16.0282 54.3497 17.6516 54.9986 17.5786C54.1869 16.7226 53.4833 15.759 52.4963 15.0026C52.1345 14.7253 51.5234 14.4789 51.1322 14.2016C50.8709 14.0163 50.1586 13.2025 49.964 13.1104C48.267 12.3077 45.7382 11.3102 43.9814 10.8138C43.2087 10.5928 42.4374 10.4475 41.6527 10.1697C41.1121 9.97828 39.8891 10.1236 39.293 9.96748C37.2009 9.62288 35.395 9.625 33.2909 9.66554C30.1056 9.72692 27.3534 10.0111 24.3003 10.9692L24.134 11.0265C23.648 10.7693 22.4911 11.5631 21.7967 11.5935Z" fill="#9FEEFD"/>
<path id="Vector_15" d="M55.7836 17.0686C57.4626 18.2823 58.1419 19.3159 59.0822 21.0858C59.2825 21.4627 59.6058 21.909 59.6785 22.3058C59.7351 22.6151 59.7381 22.9778 59.8892 23.2394L59.9101 23.2765C60.1766 23.7401 60.6569 23.9969 61.006 24.4994C62.2392 26.2746 62.5567 27.6905 62.573 29.8318C62.5757 30.1942 62.6577 30.8128 62.6335 31.1058C62.2588 29.1436 61.6536 26.9 60.8174 25.0754C60.586 24.5705 59.9728 23.8947 59.7039 23.3591C58.9271 21.812 58.6098 20.8631 57.4296 19.5873L57.4472 19.5329C57.6577 19.6189 57.9635 19.7733 58.173 19.7513C58.1758 19.1488 56.1088 17.7107 55.7836 17.0686Z" fill="#9BE8FA"/>
<path id="Vector_16" d="M24.3003 10.9691C27.3534 10.0111 30.1056 9.72692 33.2909 9.66553C35.395 9.625 37.2009 9.62288 39.293 9.96748C39.8891 10.1236 41.1121 9.97828 41.6527 10.1697C42.4374 10.4475 43.2087 10.5928 43.9814 10.8138C44.1964 10.9798 44.826 11.241 45.1026 11.3656L45.0533 11.3694C45.3824 11.534 46.0971 11.6205 46.4758 11.7963L46.1675 11.8798L46.1726 11.9602C46.3764 12.055 46.4073 12.0659 46.6339 12.1008L46.7287 11.9738C47.0982 11.9893 48.1298 12.4345 48.4274 12.7067L48.4155 12.7897C47.6561 12.8471 47.5372 12.539 46.8748 12.2556C46.8581 12.2484 46.251 12.2992 46.2292 12.2931C46.0115 12.2324 46.0194 11.9608 45.9333 11.9245C45.6906 11.8219 44.996 11.9452 44.7297 11.9792C44.5987 11.9018 44.5819 11.899 44.4318 11.8587L44.3922 11.8484L44.355 11.7774C44.5337 11.76 44.5246 11.7927 44.6067 11.6938C44.4758 11.5773 44.2833 11.5313 44.1238 11.4599C43.4336 11.1506 43.0236 10.9746 42.2633 11.1716C42.5431 11.1273 43.9869 11.8063 44.4277 11.8685C44.0901 11.9542 44.1364 11.744 43.6062 11.8474L43.5382 11.8612C43.4206 11.7453 43.3961 11.7014 43.2435 11.6582L42.9963 11.867C42.7513 11.7811 42.6076 11.4373 42.3354 11.3892C42.363 11.4738 42.3791 11.5462 42.3991 11.6321C42.3184 11.6212 41.4699 11.3129 41.3226 11.2665C38.6267 10.4163 35.9137 10.0914 33.0987 10.3832C32.8044 10.4137 32.552 10.4891 32.2651 10.5429C31.793 10.5828 30.4745 10.5717 30.0781 10.7898C29.2106 10.7649 28.3287 10.6257 27.4813 10.7453C26.9377 10.822 26.4249 11.078 25.8445 11.1219L25.9472 10.9919L25.9312 10.9517L25.3552 11.0839L25.3013 11.0377L25.4724 10.827C25.3034 10.8631 25.2671 10.9218 25.1407 11.0456C24.9917 11.0548 24.9689 11.0671 24.8487 10.9922L24.8812 10.9774C24.5762 10.8482 24.5532 10.9758 24.3003 10.9691Z" fill="#9BE8FA"/>
<path id="Vector_17" d="M7.74717 29.7363L7.77855 29.9407C7.89694 29.7946 7.95614 29.6373 8.03448 29.4658C8.12957 29.6093 8.09184 29.6633 8.0837 29.8636L8.20388 29.8088C8.23573 31.055 7.87808 32.7897 7.66042 34.056C7.6596 33.872 7.60286 31.9231 7.58762 31.9065C7.1048 32.7342 7.12886 36.1536 7.04375 37.2221C6.65337 35.9998 7.07889 31.4984 7.33065 30.1118C7.59671 29.9986 7.47941 29.8422 7.74717 29.7363Z" fill="#9FEEFD"/>
<path id="Vector_18" d="M22.4286 15.1307C22.9041 14.8098 24.0403 14.3207 24.5953 14.0886C32.5356 10.7668 42.3715 11.6013 49.5197 16.4614C50.3099 16.9987 51.1629 17.455 51.8911 18.0895C53.5453 19.5387 55.0374 21.1894 56.3019 22.9833C58.0937 25.5249 59.3516 28.4554 59.9069 31.5126C60.069 32.4047 60.0835 34.5702 60.0603 35.521C59.6032 49.2971 47.038 58.2738 33.8968 57.827C28.7075 57.6936 23.68 55.9928 19.4754 52.9482C18.1657 52.0162 17.1166 51.1875 16.0112 50.0024C13.3618 47.1978 11.4279 43.7957 10.3737 40.0844C10.1505 39.3199 9.79788 37.9351 9.83247 37.1377C9.49888 35.086 9.94834 31.4792 10.6488 29.623C11.7882 26.6037 13.3548 22.3475 15.7307 20.1544C17.3761 18.1882 20.1112 16.2297 22.4286 15.1307Z" fill="#3B9641"/>
<path id="Vector_19" d="M23.2509 15.4163C24.2665 15.1036 25.2871 14.5776 26.3202 14.2579C32.2437 12.3982 38.6708 12.1368 44.43 14.7265C45.2162 15.0799 45.7997 15.2301 46.8741 15.7859C49.4902 17.1392 52.0593 19.3471 53.8198 21.7309C53.8236 21.7483 53.8274 21.7658 53.8312 21.7833L53.7696 21.7988C53.4511 21.4372 52.4496 20.0692 52.1276 20.0055C52.044 20.0329 51.5773 20.1842 51.5164 20.1738C49.5697 19.842 48.0087 18.5285 46.2054 17.9128L46.4451 18.1305L46.434 18.2145C46.1081 18.2484 45.5268 17.8933 45.2206 17.7306L45.2594 17.6453L45.5585 17.5446L45.3973 17.398C45.0058 17.4733 45.2655 17.8747 44.8387 17.3566L44.9866 17.2862C43.4603 16.212 39.0111 15.4775 37.1088 15.2691C35.839 15.1299 33.8251 15.42 32.4728 15.469C30.654 15.5348 28.7312 15.4037 26.9101 15.5766C26.2155 15.6425 25.8083 14.7288 25.2299 14.7513C24.0381 15.1517 22.9119 15.7078 21.8199 16.3212C21.4986 16.5017 20.1735 17.4109 19.9797 17.3445C20.7705 16.7195 22.3431 15.8243 23.2509 15.4163Z" fill="#7CB782"/>
<path id="Vector_20" d="M22.4286 15.1307L22.5062 15.2068C22.1739 15.4869 21.0267 15.9767 20.8965 16.1756C21.5054 16.6778 22.6025 15.2959 23.229 15.3963L23.2509 15.4163C22.3431 15.8243 20.7704 16.7195 19.9797 17.3445C18.6543 18.2457 17.45 19.101 16.2863 20.2103C16.2134 20.2798 15.9276 20.2578 15.8211 20.2487L15.7307 20.1544C17.3761 18.1882 20.1112 16.2297 22.4286 15.1307Z" fill="#12531D"/>
<path id="Vector_21" d="M35.0806 19.7574C35.5832 20.2394 36.7732 20.9678 37.3764 21.3733C39.0998 22.5319 40.9507 23.5049 42.7122 24.5623L57.5541 33.5304C58.062 33.8329 58.5561 34.1059 59.0905 34.3635C59.3986 34.512 59.8421 34.5746 59.9663 34.8623C59.9631 35.0937 59.9938 35.4784 59.854 35.6385C57.9081 36.2936 56.0222 37.7193 54.2439 38.7477C49.3726 41.5816 44.5279 44.4611 39.7106 47.3858C38.8823 47.8913 38.0655 48.4154 37.2608 48.9578C36.8071 49.2667 35.7289 50.0655 35.3199 50.2483C34.6428 50.5509 32.2534 48.7616 31.6852 48.3891C30.3849 47.547 29.0771 46.7167 27.7618 45.8981C23.9149 43.5375 19.7962 41.2382 15.9006 38.9358C14.1725 37.9145 11.6845 36.1278 9.83521 35.7213C9.85407 35.5084 9.83856 35.0275 9.83821 34.7942C11.5714 34.1229 13.4835 32.8062 15.0867 31.8705C16.8433 30.8453 18.5447 29.8208 20.2754 28.7529L35.0806 19.7574Z" fill="#FCD406"/>
<path id="Vector_22" d="M25.5817 30.9402C26.6569 28.787 29.1467 26.7949 31.3958 26.0695C36.9999 24.262 43.1918 27.0022 44.9992 32.7485C45.398 34.0164 45.4784 35.6915 45.2227 36.9841C45.1921 37.4929 45.1454 38.1189 44.8217 38.5398C43.9867 41.1994 41.5106 43.3387 38.9404 44.2745C36.544 45.1469 34.1182 45.1616 31.6801 44.4353C28.9748 43.636 26.6989 41.7928 25.3548 39.3127C24.369 37.4691 24.3134 34.6077 24.9061 32.6416C25.0612 32.1649 25.3168 31.3589 25.5817 30.9402Z" fill="#043075"/>
<path id="Vector_23" d="M25.5817 30.9402C26.6569 28.787 29.1467 26.7949 31.3958 26.0695C36.9999 24.262 43.1918 27.0022 44.9992 32.7485C45.398 34.0164 45.4784 35.6915 45.2227 36.9841C44.7504 36.4527 44.1025 36.0207 43.5147 35.6257C41.6769 34.2338 39.2412 32.8998 37.0301 32.3269C35.6274 31.9634 34.2342 31.5381 32.7965 31.3473C31.6587 31.2234 30.5934 31.1106 29.4482 31.0917L28.8576 31.0801C27.8536 30.955 26.7081 31.0985 25.5817 30.9402Z" fill="#043075"/>
<path id="Vector_24" d="M37.6103 31.0596C38.1576 31.0145 39.1419 30.9645 39.0119 31.8108C38.6819 31.6816 37.7177 31.4381 37.5599 31.2045L37.6103 31.0596Z" fill="#ABB4A6"/>
<path id="Vector_25" d="M32.7965 31.3473C34.2342 31.5381 35.6274 31.9634 37.0301 32.3269C39.2412 32.8998 41.6769 34.2338 43.5147 35.6257C43.1261 35.9588 43.2779 36.4181 42.901 36.8235C40.732 35.3523 37.7243 34.156 35.2689 33.3283C34.9047 33.2875 34.4892 33.1987 34.1249 33.1305C33.6546 33.0601 33.3996 33.0174 32.9438 32.8843L32.4207 32.7884L32.5323 32.734C32.6863 32.5675 32.6969 32.1209 32.7398 31.8554L32.7965 31.3473Z" fill="#B4BBC4"/>
<path id="Vector_26" d="M34.1249 33.1305C34.4684 32.8683 35.5186 32.3683 35.913 32.5308C35.8211 32.8806 35.4113 32.945 35.2689 33.3283C34.9047 33.2875 34.4891 33.1987 34.1249 33.1305Z" fill="#96A6B9"/>
<path id="Vector_27" d="M32.7398 31.8554C33.1514 32.0233 32.9528 32.4225 32.9438 32.8843L32.4207 32.7884L32.5323 32.734C32.6863 32.5675 32.6969 32.1209 32.7398 31.8554Z" fill="#96A6B9"/>
<path id="Vector_28" d="M24.9061 32.6416C25.0612 32.1649 25.3168 31.3589 25.5817 30.9402C26.7081 31.0985 27.8536 30.955 28.8576 31.0801L29.4482 31.0917C29.1309 31.6272 29.0761 31.7183 29.2333 32.3277L29.2473 32.3813C29.0006 32.377 28.5735 32.3317 28.3871 32.4513C28.0726 32.4675 27.6911 32.4598 27.3708 32.462C26.8014 32.5146 25.4357 32.6682 24.9061 32.6416Z" fill="#B4BBC4"/>
<path id="Vector_29" d="M28.8576 31.0801L29.4482 31.0917C29.1309 31.6272 29.0761 31.7183 29.2333 32.3277L29.2473 32.3813C29.0006 32.377 28.5735 32.3317 28.3871 32.4513C28.0726 32.4675 27.6911 32.4598 27.3708 32.462C27.5579 32.4235 27.7102 32.3991 27.8891 32.3284L27.8978 32.2794C28.0971 31.1852 28.725 31.9278 28.8576 31.0801Z" fill="#A0B2C6"/>
<path id="Vector_30" d="M29.4482 31.0917C30.5934 31.1106 31.6587 31.2234 32.7965 31.3473L32.7398 31.8554C32.6969 32.1209 32.6863 32.5675 32.5323 32.734L32.4207 32.7884C32.1098 32.7168 31.712 32.6611 31.3913 32.6069C31.2689 32.223 31.1969 31.8927 30.8528 31.7088C30.1613 31.8407 30.5078 32.4756 29.2473 32.3813L29.2333 32.3277C29.0761 31.7183 29.1309 31.6272 29.4482 31.0917Z" fill="#B4BBC4"/>
<path id="Vector_31" d="M43.5147 35.6257C44.1025 36.0207 44.7504 36.4527 45.2227 36.9841C45.1921 37.4929 45.1454 38.1189 44.8217 38.5398C44.5207 38.1799 43.3189 37.1833 42.901 36.8235C43.2779 36.4181 43.1261 35.9588 43.5147 35.6257Z" fill="#E6EEEF"/>
<path id="Vector_32" d="M29.2473 32.3813C30.5078 32.4756 30.1613 31.8407 30.8528 31.7088C31.1969 31.8927 31.2689 32.223 31.3913 32.6069C30.7059 32.6331 29.2923 32.4546 28.3871 32.4513C28.5735 32.3317 29.0006 32.377 29.2473 32.3813Z" fill="#96A6B9"/>
<path id="Vector_33" d="M43.2535 38.7401L43.4298 38.7893C43.5617 39.0994 43.2315 39.6799 42.9499 39.7961C42.8558 39.7292 42.7524 39.6395 42.6617 39.5646C42.5255 39.0918 42.8812 38.9456 43.2535 38.7401Z" fill="#96A6B9"/>
<path id="Vector_34" d="M36.1078 37.3695C36.2703 37.3903 36.2067 37.3549 36.3119 37.4645C36.2615 37.753 35.9586 38.2259 35.7928 38.4755C35.6588 38.3705 35.5776 38.2737 35.464 38.1492C35.3482 37.6448 35.6948 37.5417 36.1078 37.3695Z" fill="#91958E"/>
<path id="Vector_35" d="M30.9602 35.1348C31.0484 35.1231 31.1851 35.1227 31.2784 35.1196C31.4438 35.2552 31.3915 35.1846 31.4536 35.4305C31.4028 35.6509 31.3917 35.7876 31.2205 35.9404C30.886 35.8451 30.6011 35.8336 30.5463 35.4631C30.6182 35.276 30.7804 35.2235 30.9602 35.1348Z" fill="#697993"/>
<path id="Vector_36" d="M41.5679 38.9902C41.8523 38.9638 42.0471 38.9285 42.3238 38.9964L42.3089 39.0651C42.0667 39.2016 41.8424 39.3116 41.5922 39.4329C41.3593 39.5726 41.2868 39.6083 41.0444 39.5196C40.9606 39.3333 40.9655 39.4164 41.039 39.2059C41.1839 39.0381 41.3512 39.0308 41.5679 38.9902Z" fill="#697993"/>
<path id="Vector_37" d="M34.1015 38.8696C34.4143 38.8939 34.471 38.878 34.6441 39.0763C34.6868 39.3047 34.5246 39.6075 34.4294 39.8348C33.9815 39.6831 33.892 39.2513 34.1015 38.8696Z" fill="#91958E"/>
<path id="Vector_38" d="M26.9925 37.9923L27.1232 38.0893L27.1341 38.2411C26.9403 38.5496 26.4027 38.6993 26.061 38.8099L25.9498 38.725L25.9813 38.5999C26.2164 38.3713 26.6885 38.152 26.9925 37.9923Z" fill="#96A6B9"/>
<path id="Vector_39" d="M29.5668 40.2806C29.9352 40.2204 30.7908 40.2098 31.0336 40.5092C30.6074 40.7075 29.9029 40.6276 29.5668 40.2806Z" fill="#ABB4A6"/>
<path id="Vector_40" d="M28.0203 37.3775C28.2524 37.3723 28.3145 37.3963 28.3948 37.594C28.2884 37.8066 28.3331 37.7405 28.086 37.8598C27.9037 37.8295 27.7837 37.8314 27.6499 37.7096C27.7277 37.5129 27.81 37.5135 28.0203 37.3775Z" fill="#ABB4A6"/>
<path id="Vector_41" d="M53.7608 45.8652L53.7778 45.9479C53.2248 46.9353 51.893 48.4376 50.9266 49.091C51.4938 49.3896 51.3314 49.4055 52.0334 49.5733L52.0542 49.7629C52.4286 49.3444 52.8487 48.8072 53.2228 48.4157L53.2675 48.4649C52.8495 49.1394 51.6123 50.3784 50.9667 50.8845C48.1482 53.0939 44.3405 54.8656 40.828 55.5477C40.5253 55.6065 39.7141 55.738 39.4573 55.7103C39.7061 55.6386 40.0885 55.5492 40.295 55.4135C40.1693 55.4142 40.0202 55.3304 39.9005 55.2764C39.7558 55.0682 39.7984 55.1305 39.8122 54.8306C39.9438 54.4169 39.9939 54.3993 40.3367 54.1427C39.1771 54.3274 35.9935 54.6068 34.8359 54.3253L34.8553 54.279C35.6934 54.149 37.3499 54.3367 38.3017 54.2518C39.9465 54.1052 42.0578 53.8014 43.6578 53.4606C44.602 53.0575 46.2859 52.5366 47.0655 51.9345C48.3676 50.8449 49.3002 49.6249 50.8978 48.9183C52.0267 48.4189 52.9149 46.7977 53.7608 45.8652Z" fill="#85B68C"/>
<path id="Vector_42" d="M17.2512 59.073C21.1754 61.2244 24.3725 62.4097 28.7619 63.1933C31.7199 63.8211 34.7856 63.862 37.788 63.6787C38.064 63.6619 38.3529 63.6338 38.6273 63.6669C36.9715 64.2048 33.6247 63.7455 31.8711 63.8601C31.2979 63.8976 31.5468 63.6349 30.8633 64.0624C30.9277 64.3167 30.5536 64.5159 30.5927 64.8225C30.7996 64.9187 35.3013 65.8273 35.4746 65.8155L35.4987 65.8448L35.6369 65.8564L35.4501 65.8647L35.6171 65.8798L35.3242 65.8585L35.3452 65.8342C33.7861 65.6785 32.3755 65.23 30.8571 64.9902C28.2291 64.5752 25.5992 64.2142 23.0141 63.563C22.1713 63.3507 21.3004 63.2391 20.4667 62.978L20.5065 62.9431C21.1181 62.9302 21.4704 63.2167 22.1059 63.2674C22.2512 63.0371 22.1213 62.5479 22.5368 61.8149C21.5393 61.2569 17.6827 59.7816 17.2512 59.073Z" fill="#B4BBC4"/>
</g>
<defs>
<clipPath id="clip0_0_4">
<rect width="70" height="70" fill="white"/>
</clipPath>
</defs>
</svg>
