<svg preserveAspectRatio="none" width="100%" height="100%" overflow="visible" style="display: block;" viewBox="0 0 70 70" fill="none" xmlns="http://www.w3.org/2000/svg">
<g id="INGLESE [Vectorized]" clip-path="url(#clip0_0_4)">
<path id="Vector" d="M32.7441 0H37.2427C37.253 0.00725696 37.263 0.0150234 37.2736 0.021771C37.4384 0.1262 40.3614 0.369482 40.8792 0.452023C42.1398 0.653005 43.3807 0.969561 44.6075 1.3175C56.4586 4.70562 65.6689 14.0543 68.8803 25.9547C69.2453 27.3918 69.5283 28.8487 69.7272 30.3182C69.7813 30.6979 69.9275 32.6396 70 32.7538V37.3796C69.6992 39.6292 69.57 41.1587 69.0149 43.418C67.0834 51.1779 62.5557 58.0437 56.1836 62.8753C51.3344 66.58 45.4262 68.9862 39.4006 69.7443C39.0838 69.784 38.2993 69.8701 38.0382 70H31.8724C30.9699 69.7512 29.9776 69.6931 29.0657 69.5208C28.0442 69.328 26.9158 69.0724 25.9143 68.801C14.0989 65.6383 4.79546 56.5309 1.38152 44.7857C0.722702 42.5192 0.257944 40.201 0.114496 37.8426C0.102794 37.6502 0.112703 37.4718 0 37.3069V32.7541C0.162588 32.5472 0.0897121 32.2514 0.110357 31.9907C0.249145 30.2381 0.514136 28.4508 0.931499 26.7406C3.90664 14.5544 13.1566 4.88084 25.1974 1.36328C26.4675 0.986576 27.7604 0.691407 29.0682 0.479586C29.5551 0.400174 32.5815 0.108411 32.7152 0.0209611C32.7251 0.014454 32.7344 0.00698701 32.7441 0Z" fill="transparent"/>
<path id="Vector_2" d="M6.03175 29.2936C6.02444 27.9336 6.67426 26.1081 7.05154 24.7553C8.49488 19.5807 10.7874 15.9731 14.4497 12.1779C20.8934 5.50058 28.1561 2.57393 37.5159 2.5287C45.3301 2.54529 52.8283 5.61524 58.4104 11.0834C59.2298 11.8962 59.8598 12.7278 60.5782 13.6289C65.1489 19.2622 67.6344 26.3007 67.6149 33.555C67.6328 36.6424 67.2001 39.716 66.3305 42.6785C66.2345 43 65.8967 44.0439 65.7243 44.3101C65.4138 45.4791 64.549 46.838 64.0227 47.9084C61.916 52.1935 58.9333 55.4429 55.111 58.2681C52.9832 59.889 50.8501 60.8537 48.4047 61.8506C38.3468 65.9505 26.5876 64.2602 17.9417 57.74C16.1118 56.3599 13.246 53.5263 11.9289 51.6968C8.03229 46.2012 5.91941 39.6406 5.87655 32.904C5.87085 31.8712 5.86691 30.3022 6.03175 29.2936Z" fill="#6BD6F4"/>
<path id="Vector_3" d="M6.03175 29.2936C6.08824 29.8458 5.99733 30.0079 6.02245 30.4817C6.11789 32.2824 5.94445 34.1263 6.1148 35.9091C6.20611 36.8648 6.33606 37.8339 6.55168 38.7677C6.61969 39.0622 6.73278 39.3051 6.81946 39.5885C6.84694 39.6784 6.83324 40.2251 6.86478 40.2957C7.10042 40.8224 7.29244 41.3159 7.35861 41.9034L7.44912 41.9161C7.6637 41.4842 7.21232 40.5763 7.31056 39.996C7.39703 40.0364 8.0435 42.0574 8.22021 42.3345C8.3812 42.587 9.41445 44.4611 9.41418 44.4885C9.20315 44.3927 7.91547 42.2095 7.75667 41.8568C7.04621 42.1271 8.4836 44.3304 8.63256 44.8213C8.72682 45.132 8.57719 45.2091 8.79792 45.479L8.93026 45.3882C9.07655 45.6688 9.49368 47.2179 9.62561 47.2643C9.65166 47.2734 9.69671 47.2771 9.72508 47.2803C10.0299 48.069 11.4763 50.859 11.9777 51.5035C13.746 53.7771 16.3386 56.3786 18.6702 58.0798C19.8048 58.9076 21.2306 59.6127 22.4285 60.3432C22.6464 60.4761 22.73 60.4568 22.9873 60.4354C23.3492 60.7899 23.605 61.1453 24.0992 60.9547C24.1317 61.0526 24.1289 61.0459 24.1101 61.1479C24.7122 61.5964 28.5852 62.9013 29.5978 63.0888C30.0234 63.2364 30.5219 63.162 30.9241 63.3168C31.0039 63.3476 31.0934 63.4351 31.1964 63.4362C32.5319 63.4506 33.6779 63.5108 34.992 63.7969L35.3787 63.6791C35.7665 63.5623 36.1494 63.6678 36.5276 63.7657C37.1058 63.9154 37.6906 63.9478 38.2852 63.8898L38.1193 63.8432L38.0858 63.7649C37.9948 63.7958 40.9534 63.6626 41.2621 63.6291C41.4167 63.5348 41.4386 63.5115 41.5594 63.3758C42.3867 63.4665 42.3462 63.5087 43.1018 63.2405C43.6018 63.063 43.8709 63.2958 44.4282 62.8607C46.008 62.8469 49.8866 61.1042 51.4372 60.3845C52.6687 59.8129 54.6154 58.4149 55.6725 57.5297C56.1553 57.1254 56.6863 56.8211 57.1681 56.4213C57.7865 55.8715 60.7172 53.1789 60.8431 52.5597L60.7087 52.5297C60.78 52.235 62.1573 50.5077 62.4703 49.6197C62.6528 49.4776 62.6052 49.4734 62.8106 49.4458C62.7989 49.548 62.7921 49.6236 62.7886 49.7264C62.9287 49.5718 63.0408 49.4777 63.0675 49.2686C63.0003 49.0018 62.9216 48.8969 63.0862 48.6499C63.2723 48.3705 63.5757 47.785 63.8163 47.5911C63.801 47.8753 63.3839 48.5907 63.2315 48.8691C63.6057 48.6586 65.4203 44.9175 65.6327 44.3012C65.6633 44.3041 65.6938 44.3071 65.7243 44.3101C65.4138 45.4791 64.549 46.838 64.0227 47.9084C61.916 52.1935 58.9333 55.4429 55.111 58.2681C52.9832 59.889 50.8501 60.8537 48.4047 61.8506C38.3468 65.9505 26.5876 64.2602 17.9417 57.7399C16.1118 56.3599 13.246 53.5263 11.9289 51.6968C8.03229 46.2012 5.91941 39.6406 5.87655 32.904C5.87085 31.8712 5.86691 30.3022 6.03175 29.2936Z" fill="#38ADD8"/>
<path id="Vector_4" d="M29.4669 59.2998C27.212 58.4425 25.8374 57.9886 23.6536 56.8197C20.1709 54.9555 17.4509 52.6752 15.0592 49.5086C14.4999 48.7681 13.8508 48.1037 13.3162 47.3418C12.0926 45.6276 9.889 41.0961 9.50209 39.0583C8.70605 34.3444 8.66318 29.0086 9.61953 24.3104C10.1365 21.7708 11.7989 19.0938 13.0748 16.879C13.3325 16.4317 13.6608 16.1083 13.9128 15.6952C14.0188 15.5215 13.3261 15.2308 13.2086 15.0708C15.559 12.0943 18.9992 8.83305 22.4301 7.21745C22.931 7.02331 23.5149 6.7442 24.0196 6.58387C24.6048 6.39796 25.0612 5.76962 25.6012 5.93457C25.6017 5.93472 26.2023 5.46873 26.2797 5.4364C28.5822 4.47479 31.1337 4.28306 33.5819 3.92671C35.1102 3.71338 36.6661 3.72558 38.1932 3.72978C39.8321 3.7343 41.4486 3.82 43.0636 4.08655C47.768 5.054 52.0071 7.03103 55.7947 9.99004C56.9473 10.8905 59.1122 13.1588 60.0096 14.4515C61.7961 17.0252 64.255 20.9089 64.8765 23.9718C64.9978 24.5694 64.456 25.4108 64.3094 26.0075C64.2518 26.2418 64.0635 26.3601 63.8725 26.5111C63.8446 26.5899 64.3364 30.1072 64.3714 30.5923C64.9339 38.3966 62.6112 46.2565 57.2826 52.0764C55.7352 53.7664 54.092 55.0238 52.3035 56.4346C52.1077 57.2303 43.9209 60.5448 42.703 60.8941C42.2417 61.0263 41.076 61.2384 40.5361 61.3742L40.5649 61.3823C40.4625 61.4053 39.9684 61.5114 39.9108 61.5491C39.3735 61.901 38.6414 61.8494 38.0922 62.0982L38.091 62.1467C38.644 62.2355 41.0281 62.1555 41.5877 62.0506C41.5325 62.0062 41.4846 61.9577 41.4369 61.9054C42.5658 61.4903 42.8385 61.7391 43.7594 61.873L43.4865 62.0401L43.5656 61.9853C43.9293 62.2565 45.528 61.5308 46.0579 61.6765C46.3239 61.7496 46.5939 61.6077 46.8284 61.522L46.8259 61.5682C46.3138 61.7665 46.0411 62.0259 45.3975 62.0277C44.5968 62.03 43.927 62.8557 43.3381 62.2734L43.1368 62.2425L43.1292 62.2969L43.2927 62.4962L43.2789 62.6199C43.2242 62.6525 40.3482 62.7827 40.1373 62.7365L40.0184 62.8383C40.0787 62.9205 40.0395 62.8962 40.1387 62.9146C39.7742 62.9227 39.5581 62.8601 39.231 62.9439L39.2799 63.0172C39.387 63.03 39.4689 63.0952 39.5629 63.1533L39.525 63.2133C38.0446 63.1014 36.3679 63.2208 34.8806 63.2773C34.4724 63.2927 33.7829 63.4878 33.4202 63.4033C33.3639 63.339 33.1475 63.0792 33.0593 63.0897C32.7586 63.1255 31.6027 63.1336 31.4003 62.9875C31.5193 62.8342 31.5238 62.871 31.7367 62.8106C32.2079 62.9736 32.6852 62.6162 33.2475 62.6203C34.1681 62.6272 35.0509 62.8402 35.968 62.765C35.6987 62.5557 31.027 62.2391 30.2281 61.7183C30.5715 61.5798 30.7597 61.6347 31.0144 61.4033C30.901 60.7061 32.7969 61.3066 33.3139 60.9058L33.2739 60.7983C32.8061 60.4088 30.2258 59.6805 29.5168 59.4155L29.4669 59.2998Z" fill="#D3F8FC"/>
<path id="Vector_5" d="M29.4669 59.2999C30.0629 59.309 31.8739 59.935 32.4643 60.129C32.6599 60.1932 33.1693 60.1491 33.2598 60.1941C33.8887 60.5078 34.3472 60.8066 35.0358 61.0101C37.8527 61.8427 40.8613 61.3044 43.6053 60.4533C44.7104 60.0527 45.7868 59.5697 46.8712 59.1175C47.2485 58.9602 47.6245 58.7993 47.9946 58.6308C48.7914 58.268 49.6045 57.9341 50.3861 57.5399C51.0405 57.2099 51.6566 56.7796 52.3035 56.4346C52.1077 57.2303 43.9209 60.5448 42.703 60.8941C42.2417 61.0263 41.076 61.2385 40.5361 61.3742L40.5649 61.3823C40.4625 61.4053 39.9684 61.5114 39.9108 61.5491C39.3735 61.9011 38.6414 61.8495 38.0922 62.0982L38.091 62.1467C38.644 62.2355 41.0281 62.1555 41.5877 62.0506C41.5325 62.0062 41.4846 61.9577 41.4369 61.9054C42.5658 61.4903 42.8385 61.7391 43.7594 61.873L43.4865 62.0401L43.5656 61.9854C43.9293 62.2565 45.528 61.5308 46.0579 61.6765C46.3239 61.7496 46.5939 61.6077 46.8284 61.522L46.8259 61.5682C46.3138 61.7665 46.0411 62.0259 45.3975 62.0277C44.5968 62.0301 43.927 62.8557 43.3381 62.2734L43.1368 62.2425L43.1292 62.2969L43.2927 62.4962L43.2789 62.6199C43.2242 62.6525 40.3482 62.7827 40.1373 62.7365L40.0184 62.8383C40.0787 62.9205 40.0395 62.8962 40.1387 62.9146C39.7742 62.9227 39.5581 62.8601 39.231 62.9439L39.2799 63.0172C39.387 63.03 39.4689 63.0952 39.5628 63.1533L39.525 63.2133C38.0446 63.1015 36.3679 63.2208 34.8806 63.2773C34.4724 63.2927 33.7829 63.4878 33.4202 63.4033C33.3639 63.339 33.1475 63.0792 33.0593 63.0897C32.7586 63.1255 31.6027 63.1336 31.4003 62.9875C31.5193 62.8342 31.5238 62.871 31.7367 62.8106C32.2079 62.9736 32.6852 62.6162 33.2475 62.6203C34.1681 62.6272 35.0509 62.8403 35.968 62.7651C35.6987 62.5557 31.027 62.2391 30.2281 61.7183C30.5715 61.5798 30.7597 61.6347 31.0144 61.4033C30.901 60.7061 32.7969 61.3066 33.3139 60.9058L33.2739 60.7983C32.8061 60.4088 30.2258 59.6805 29.5168 59.4155L29.4669 59.2999Z" fill="#5BD8F5"/>
<path id="Vector_6" d="M39.2799 63.0172C39.387 63.03 39.4689 63.0952 39.5629 63.1533L39.5251 63.2133C38.0446 63.1014 36.3679 63.2208 34.8806 63.2773C34.4724 63.2927 33.7829 63.4878 33.4202 63.4033C33.3639 63.339 33.1475 63.0792 33.0593 63.0897C32.7586 63.1255 31.6027 63.1336 31.4003 62.9875C31.5194 62.8342 31.5238 62.871 31.7367 62.8106C32.2079 62.9736 32.6852 62.6162 33.2475 62.6203C34.1681 62.6272 35.0509 62.8402 35.968 62.765C36.8043 62.837 37.7275 62.7326 38.5195 62.8164C38.4318 62.9379 37.8948 63.0161 37.7035 63.0565C38.1601 63.0612 38.8496 63.0896 39.2799 63.0172Z" fill="#32BAD9"/>
<path id="Vector_7" d="M61.1285 22.0948C62.4977 26.4821 63.4888 29.2586 63.2821 33.9745C63.0947 38.248 62.5939 41.7007 60.5658 45.5623C59.9109 46.8092 59.3563 48.0236 58.4568 49.1431C57.1463 50.8013 55.5728 52.3384 54.0029 53.7564C51.5685 55.8247 48.4329 57.1949 45.467 58.303C44.2423 58.7606 42.7243 59.2817 41.4424 59.4588C33.9006 60.4777 26.2636 58.45 20.2205 53.8242C17.6692 51.8854 17.1609 50.8711 15.3787 48.5616C11.5972 43.6615 9.74866 38.8588 9.95524 32.6259C10.0155 30.8094 10.0092 29.0784 10.3973 27.2431C10.528 26.6245 10.6384 25.7277 10.8848 25.1122C11.178 24.38 11.72 23.4516 12.0141 22.6849C11.9801 22.4354 11.9517 22.2265 11.9287 22.0582C12.2434 21.3004 12.5688 20.4387 12.9621 19.7213C14.8654 16.4088 17.7408 13.3884 20.7423 11.0137C25.8569 6.96726 32.6037 5.56216 38.924 6.0949C39.2865 6.00402 39.7499 6.05668 40.1324 6.0631C43.1024 6.11294 45.5937 7.21684 48.2809 8.21728C51.3615 9.36421 52.5352 10.2547 54.8459 12.5158C57.7106 15.319 60.1219 17.844 61.0933 21.9132C61.1116 21.9848 61.117 22.0222 61.1285 22.0948Z" fill="#5BD8F5"/>
<path id="Vector_8" d="M38.924 6.0949C39.2865 6.00402 39.7499 6.05668 40.1324 6.0631C43.1024 6.11294 45.5937 7.21684 48.2809 8.21728C51.3615 9.36421 52.5352 10.2547 54.8459 12.5158C57.7106 15.319 60.1219 17.844 61.0933 21.9132C61.1116 21.9848 61.117 22.0222 61.1285 22.0948C60.7691 21.6327 60.4406 20.3247 60.2051 19.7504C59.9529 19.1354 59.1036 17.4176 58.6767 16.8945C56.7491 14.532 54.2855 11.996 51.9113 10.0944C51.4065 9.69008 49.9671 9.19721 49.3784 8.94681C48.8151 8.70714 48.2748 8.40246 47.7321 8.16683C46.1558 7.49137 44.5302 6.93752 42.8695 6.51003C42.275 6.3618 39.0415 6.15993 38.924 6.0949Z" fill="#A9F4FF"/>
<path id="Vector_9" d="M14.6431 42.3015L14.5594 42.3359C14.5254 42.3237 14.331 42.2511 14.3187 42.2328C13.5194 41.0426 12.9392 36.8612 12.7078 35.6892L12.7046 35.8073C12.4206 34.4833 12.417 31.4615 12.6286 30.109C12.6586 29.9163 12.9095 29.6735 12.925 29.5198C12.9807 28.9637 13.0343 28.4568 13.1064 27.901C13.1792 27.3398 13.3689 27.1096 13.4456 26.6817C13.5705 25.9842 13.6551 25.1085 13.695 24.4019C13.6966 24.3717 14.0686 23.6414 14.105 23.5542C14.7635 21.9783 15.8675 20.6624 16.9881 19.3895C17.5528 18.748 18.1122 17.8691 18.6808 17.2466C19.959 15.8474 21.4773 14.475 23.0395 13.4029C23.5496 13.0529 23.9842 12.8235 24.5085 12.5187C24.8071 12.345 25.2049 11.9501 25.5117 11.7698C26.3599 11.2712 27.2694 10.7819 28.1525 10.3506C28.8133 10.0279 29.5736 9.76691 30.284 9.59178C30.7415 9.47905 31.7281 9.48165 32.1104 9.27801L32.09 9.22059C31.6029 9.19755 31.0824 9.1862 30.6052 9.10321C30.9141 8.89732 36.3488 8.82971 37.1656 8.83682C36.9861 8.95693 36.6915 8.90839 36.4604 8.9224C35.5526 8.9773 34.6688 9.2171 33.7669 9.30269C36.1164 9.3046 41.3851 9.4379 43.361 10.4843C44.7376 10.8473 48.2902 11.7571 49.0237 12.9635C50.5148 14.0382 51.8916 15.2657 53.3712 16.3562C53.5382 16.4793 53.7025 16.6024 53.8422 16.757L54.015 16.8058C54.6189 17.2392 56.5126 19.7185 56.7608 20.3625C57.0791 20.8902 57.2846 21.4339 57.5613 21.9795C57.9195 22.6861 58.328 23.3785 58.7303 24.0615C59.2636 24.9242 59.9941 26.803 60.0572 27.8076C60.1135 28.5098 60.3235 30.6336 60.5708 31.2169C60.7789 31.5587 60.8321 34.4207 60.7344 34.8904C60.6572 35.4505 60.3381 38.354 60.1043 38.5883C60.1709 38.6755 60.186 38.6561 60.1785 38.7261C60.1161 39.3066 59.5172 42.0833 59.1511 42.3884C58.3496 43.4858 57.7907 44.9177 57.1845 46.1424C56.879 47.0088 54.6894 49.7311 53.8686 50.1465C52.9553 51.1674 51.2932 52.2472 50.2521 53.2342C50.0593 53.4169 49.738 53.551 49.5413 53.7076C49.4847 53.9109 49.4214 53.9659 49.2257 54.0777C43.5833 57.2991 36.5332 58.142 30.2952 56.3198C29.0955 55.9694 25.0016 54.7461 24.4558 53.8418C24.3867 53.7436 23.6856 53.296 23.5324 53.164C22.433 52.2163 21.2269 51.2174 20.2182 50.1817C19.4047 49.8777 17.0372 47.042 16.7472 46.2037C16.5309 45.8261 14.8076 42.5522 14.7639 42.3294L14.6431 42.3015Z" fill="#25376B"/>
<path id="Vector_10" d="M37.2452 34.92C45.0555 34.9738 52.9151 34.7914 60.7344 34.8904C60.6572 35.4505 60.3381 38.354 60.1043 38.5883C60.1709 38.6755 60.186 38.6561 60.1785 38.7261C60.1161 39.3066 59.5172 42.0833 59.1511 42.3884C58.3496 43.4858 57.7907 44.9177 57.1845 46.1424C56.879 47.0088 54.6894 49.7311 53.8686 50.1465C52.9553 51.1674 51.2932 52.2472 50.2521 53.2342C50.0593 53.4169 49.738 53.551 49.5413 53.7076C49.4847 53.9109 49.4214 53.9659 49.2257 54.0777C43.5833 57.2991 36.5332 58.142 30.2952 56.3198C29.0955 55.9694 25.0016 54.7461 24.4558 53.8418C24.3867 53.7436 23.6856 53.296 23.5324 53.164C22.433 52.2163 21.227 51.2174 20.2182 50.1817C19.4047 49.8777 17.0372 47.042 16.7472 46.2037C16.5309 45.8261 14.8076 42.5522 14.7639 42.3294L14.6431 42.3015C13.9164 41.4084 13.5756 39.598 13.3945 38.4812C13.0864 38.0548 12.9594 35.6161 12.8449 34.9245C15.6522 34.9982 18.4613 34.9552 21.2702 34.9435C24.5025 34.9214 27.735 34.9188 30.9674 34.9357C32.8751 34.9331 35.3765 34.8383 37.2452 34.92Z" fill="#F1F1F2"/>
<path id="Vector_11" d="M37.2452 34.92C45.0555 34.9738 52.9151 34.7914 60.7344 34.8904C60.6572 35.4505 60.3381 38.354 60.1043 38.5883C60.1709 38.6755 60.186 38.6561 60.1785 38.7261C60.1161 39.3066 59.5172 42.0833 59.1511 42.3884C58.0247 42.2431 55.4259 42.3095 54.2256 42.3105L45.2568 42.3086L14.7639 42.3294L14.6431 42.3015C13.9164 41.4084 13.5756 39.598 13.3945 38.4812C13.0864 38.0548 12.9594 35.6161 12.8449 34.9245C15.6522 34.9982 18.4613 34.9552 21.2702 34.9435C24.5025 34.9214 27.735 34.9188 30.9674 34.9357C32.8751 34.9331 35.3765 34.8383 37.2452 34.92Z" fill="#9D272F"/>
<path id="Vector_12" d="M37.2452 34.92C45.0555 34.9738 52.9151 34.7914 60.7344 34.8904C60.6572 35.4505 60.3381 38.354 60.1043 38.5883C59.475 38.6226 58.3753 38.5675 57.7047 38.5613L53.543 38.5624C48.499 38.5771 43.455 38.5599 38.4113 38.5109C30.0613 38.4286 21.7625 38.6083 13.3945 38.4812C13.0864 38.0548 12.9594 35.6161 12.8449 34.9245C15.6522 34.9982 18.4613 34.9552 21.2702 34.9435C24.5025 34.9214 27.735 34.9188 30.9674 34.9357C32.8751 34.9331 35.3765 34.8383 37.2452 34.92Z" fill="#F1F1F2"/>
<path id="Vector_13" d="M20.2182 50.1817C20.8271 50.0627 22.0953 50.0335 22.7293 50.0129C25.2393 49.9313 27.7603 50.0356 30.2747 50.0205C34.6699 49.9863 39.0653 49.9795 43.4606 50.0002C46.9649 49.9878 50.3673 49.8801 53.8686 50.1465C52.9553 51.1674 51.2933 52.2472 50.2521 53.2342C50.0593 53.4169 49.738 53.551 49.5413 53.7076C49.4847 53.9109 49.4214 53.9659 49.2257 54.0777C43.5833 57.2991 36.5332 58.142 30.2952 56.3198C29.0955 55.9694 25.0016 54.7461 24.4558 53.8418C24.3867 53.7436 23.6856 53.296 23.5324 53.164C22.433 52.2163 21.2269 51.2174 20.2182 50.1817Z" fill="#F1F1F2"/>
<path id="Vector_14" d="M24.4558 53.8418C25.2348 54.0781 27.9169 53.8922 28.882 53.8942L41.2078 53.8848C42.8225 53.8948 44.4372 53.8924 46.0519 53.8775C47.149 53.8695 48.4967 53.9211 49.5413 53.7076C49.4847 53.9109 49.4214 53.9659 49.2257 54.0777C43.5833 57.2991 36.5332 58.142 30.2952 56.3198C29.0955 55.9694 25.0016 54.7461 24.4558 53.8418Z" fill="#9D272F"/>
<path id="Vector_15" d="M16.7472 46.2037L43.8811 46.2007C48.245 46.2047 52.8855 46.0235 57.1845 46.1424C56.879 47.0088 54.6894 49.7311 53.8686 50.1465C50.3673 49.8801 46.9649 49.9878 43.4606 50.0002C39.0653 49.9795 34.6699 49.9863 30.2747 50.0205C27.7603 50.0356 25.2393 49.9313 22.7293 50.0129C22.0953 50.0334 20.8271 50.0627 20.2182 50.1817C19.4047 49.8777 17.0372 47.042 16.7472 46.2037Z" fill="#9D272F"/>
<path id="Vector_16" d="M37.0582 11.0156C36.9781 10.6911 36.7998 10.0784 37.0212 9.80848C38.1646 9.03827 42.0157 10.2893 43.2966 10.4753L43.361 10.4843C44.7376 10.8473 48.2902 11.7571 49.0237 12.9635C50.5148 14.0382 51.8916 15.2657 53.3712 16.3562C53.5382 16.4793 53.7025 16.6024 53.8422 16.757L54.015 16.8058C54.6189 17.2392 56.5126 19.7185 56.7608 20.3625C57.0791 20.8902 57.2846 21.4339 57.5613 21.9795C57.9195 22.6861 58.328 23.3785 58.7303 24.0615C59.2636 24.9242 59.9941 26.803 60.0572 27.8076C60.1135 28.5098 60.3235 30.6336 60.5708 31.2169C60.7789 31.5587 60.8321 34.4207 60.7344 34.8904C52.9151 34.7914 45.0555 34.9738 37.2452 34.92C37.1847 33.7118 37.1848 32.5013 37.2455 31.293C37.2374 30.1152 37.2985 28.968 37.2753 27.7701C37.188 26.8272 37.1157 25.0567 37.2364 24.1205C37.273 22.8738 37.2941 21.6267 37.2997 20.3794C37.2671 19.1865 37.284 17.9218 37.2807 16.7235C37.2039 15.6095 37.245 14.0569 37.23 12.8957C37.1556 12.3234 37.2776 11.5445 37.0582 11.0156Z" fill="#9D272F"/>
<path id="Vector_17" d="M37.0582 11.0156C36.9781 10.6911 36.7998 10.0784 37.0212 9.80848C38.1646 9.03827 42.0157 10.2893 43.2966 10.4753L43.361 10.4843C44.7376 10.8473 48.2902 11.7571 49.0237 12.9635C50.5148 14.0382 51.8916 15.2657 53.3712 16.3562C53.5382 16.4793 53.7025 16.6024 53.8422 16.757L54.015 16.8058C54.6189 17.2392 56.5126 19.7185 56.7608 20.3625C57.0791 20.8902 57.2846 21.4339 57.5613 21.9795C57.9195 22.6861 58.328 23.3785 58.7303 24.0615C56.0812 24.1387 53.5079 24.1129 50.8609 24.0903C46.3801 24.052 41.7022 24.2092 37.2364 24.1205C37.273 22.8738 37.2941 21.6267 37.2997 20.3794C37.2671 19.1865 37.284 17.9218 37.2807 16.7235C37.2039 15.6095 37.245 14.0569 37.23 12.8957C37.1556 12.3234 37.2776 11.5445 37.0582 11.0156Z" fill="#F1F1F2"/>
<path id="Vector_18" d="M37.0582 11.0156C36.9781 10.6911 36.7998 10.0784 37.0212 9.80848C38.1646 9.03827 42.0157 10.2893 43.2966 10.4753L43.361 10.4843C44.7376 10.8473 48.2902 11.7571 49.0237 12.9635C50.5148 14.0382 51.8916 15.2657 53.3712 16.3562C53.5382 16.4793 53.7025 16.6024 53.8422 16.757C52.5975 16.6614 50.1765 16.7428 48.8533 16.7412L41.5675 16.7028C40.1459 16.702 38.6948 16.7451 37.2807 16.7235C37.2039 15.6095 37.245 14.0569 37.23 12.8957C37.1556 12.3234 37.2776 11.5445 37.0582 11.0156Z" fill="#F1F1F2"/>
<path id="Vector_19" d="M37.0582 11.0156C36.9781 10.6911 36.7998 10.0784 37.0212 9.80848C38.1646 9.03827 42.0157 10.2893 43.2966 10.4753L43.361 10.4843C44.7376 10.8473 48.2902 11.7571 49.0237 12.9635C48.3517 12.7571 46.7466 12.8033 45.994 12.8058C44.3522 12.8116 42.7105 12.8298 41.0689 12.8603C39.8377 12.8915 38.4467 12.9852 37.23 12.8957C37.1556 12.3234 37.2776 11.5445 37.0582 11.0156Z" fill="#B25E63"/>
<path id="Vector_20" d="M37.2807 16.7235C38.6948 16.7451 40.1459 16.702 41.5675 16.7028L48.8533 16.7412C50.1765 16.7428 52.5975 16.6614 53.8422 16.757L54.015 16.8058C54.6189 17.2392 56.5126 19.7185 56.7608 20.3626L37.2997 20.3794C37.2671 19.1865 37.284 17.9219 37.2807 16.7235Z" fill="#9D272F"/>
<path id="Vector_21" d="M58.7303 24.0615C59.2636 24.9242 59.9941 26.803 60.0572 27.8076C52.4469 27.6935 44.8569 27.8442 37.2753 27.7701C37.188 26.8272 37.1157 25.0567 37.2364 24.1205C41.7022 24.2092 46.3801 24.052 50.8609 24.0903C53.5079 24.1129 56.0812 24.1387 58.7303 24.0615Z" fill="#9D272F"/>
<path id="Vector_22" d="M37.2753 27.7701C44.8569 27.8442 52.4469 27.6935 60.0572 27.8076C60.1135 28.5098 60.3235 30.6336 60.5708 31.2169C55.0618 31.4403 48.9297 31.2963 43.3698 31.3042C42.0189 31.308 40.668 31.3033 39.3172 31.2899C38.8527 31.2864 37.667 31.2463 37.2455 31.293C37.2374 30.1152 37.2985 28.968 37.2753 27.7701Z" fill="#F1F1F2"/>
<path id="Vector_23" d="M33.7669 9.30268C36.1164 9.3046 41.3851 9.4379 43.361 10.4843L43.2966 10.4753C42.0157 10.2893 38.1646 9.03827 37.0212 9.80847C36.7998 10.0784 36.9781 10.6911 37.0582 11.0156L36.7577 10.6436C36.583 10.7427 36.6527 10.747 36.5971 10.8285C36.337 11.2103 35.2928 11.6562 34.8847 11.835C34.6672 11.7051 34.5892 11.641 34.3355 11.6345C34.1854 11.4128 34.162 11.2935 33.8905 11.2435C32.8753 11.0562 31.8501 11.4004 30.8628 11.5487C30.6356 11.5828 29.8393 11.5738 29.5302 11.586C29.4266 11.6942 29.4393 11.7767 29.4232 11.936C29.3949 11.7787 29.3893 11.7703 29.3119 11.6287C29.1333 11.4952 28.8435 11.5188 28.6096 11.5125C29.0043 10.3126 32.4365 9.90958 33.486 9.66013C33.7967 9.58624 33.9216 9.78544 34.1058 9.76336L34.1572 9.62329C34.0293 9.50783 33.648 9.56621 33.4344 9.57414L33.3704 9.50277L33.6558 9.46784C33.5737 9.42737 31.1203 9.75693 30.8157 9.79384C30.2068 9.86767 29.2671 10.4102 28.6376 10.3572C30.2836 9.54426 31.9688 9.48452 33.7669 9.30268Z" fill="#476C94"/>
<path id="Vector_24" d="M14.6431 42.3015L14.5594 42.3359C14.5254 42.3237 14.331 42.2511 14.3187 42.2328C13.5194 41.0426 12.9392 36.8612 12.7078 35.6892L12.7046 35.8073C12.4206 34.4833 12.417 31.4615 12.6286 30.109C12.6586 29.9163 12.9095 29.6735 12.925 29.5198C12.9807 28.9637 13.0343 28.4568 13.1064 27.901C13.1792 27.3398 13.3689 27.1096 13.4456 26.6817C13.5705 25.9842 13.6551 25.1085 13.695 24.4019C13.6966 24.3717 14.0686 23.6414 14.105 23.5542C14.7635 21.9783 15.8675 20.6624 16.9881 19.3895C17.5528 18.748 18.1122 17.8691 18.6808 17.2466C19.959 15.8474 21.4773 14.475 23.0395 13.4029C23.5496 13.0529 23.9842 12.8235 24.5085 12.5187C24.8071 12.345 25.2049 11.9501 25.5117 11.7698C26.3599 11.2712 27.2694 10.7819 28.1525 10.3506C28.8133 10.0279 29.5736 9.76691 30.284 9.59178C30.7415 9.47905 31.7281 9.48165 32.1104 9.27801L32.09 9.22059C31.6029 9.19755 31.0824 9.1862 30.6052 9.10321C30.9141 8.89732 36.3488 8.82971 37.1656 8.83682C36.9861 8.95693 36.6915 8.90839 36.4604 8.9224C35.5526 8.9773 34.6688 9.2171 33.7669 9.30269C31.9688 9.48452 30.2836 9.54427 28.6376 10.3572C24.1505 12.2802 20.2514 15.3552 17.3355 19.2706C17.0499 19.5787 16.5802 20.0741 16.3705 20.4363L16.0629 20.8875C15.2295 21.7349 14.9221 22.9878 14.7269 24.1479C14.0051 25.6364 13.4228 26.7879 13.1584 28.4834C13.3697 28.7312 13.6476 29.0392 13.8309 29.2998C13.5035 29.4411 12.9622 29.6402 12.8503 30.0166C12.6303 30.7561 12.526 34.3906 12.8449 34.9245C12.9594 35.6161 13.0864 38.0548 13.3945 38.4812C13.5756 39.598 13.9164 41.4084 14.6431 42.3015Z" fill="#38ADD8"/>
<path id="Vector_25" d="M28.6096 11.5125C28.8435 11.5188 29.1333 11.4952 29.3119 11.6287C29.3893 11.7703 29.3949 11.7787 29.4232 11.936C29.5721 12.5128 29.8056 13.0555 29.4473 13.5914C28.4185 14.218 28.3948 12.1488 28.6096 11.5125Z" fill="#F1F1F2"/>
<path id="Vector_26" d="M34.3356 11.6345C34.5892 11.641 34.6672 11.7051 34.8848 11.835C35.1335 12.061 35.427 12.3843 35.4026 12.7486C35.3896 12.9609 35.2877 13.1579 35.122 13.2913C34.5068 13.7917 33.9885 13.427 34.1595 12.6656C34.2308 12.348 34.251 11.9865 34.3356 11.6345Z" fill="#F1F1F2"/>
<path id="Vector_27" d="M14.7269 24.1479C14.9221 22.9878 15.2295 21.7349 16.0629 20.8875C16.0275 21.1366 15.98 21.3908 16.0018 21.6405C15.7245 22.2782 15.5214 22.5897 15.5511 23.2807C15.2027 23.5607 15.0123 23.8081 14.7269 24.1479Z" fill="#3691C4"/>
<path id="Vector_28" d="M17.6581 20.0692C18.0071 20.2962 18.3615 20.5129 18.1585 20.9686C17.749 21.2733 17.1317 21.136 16.8002 20.7858C16.8299 20.7052 16.8658 20.6269 16.9073 20.5517C17.0924 20.2194 17.3077 20.1725 17.6581 20.0692Z" fill="#B5E0FE"/>
<path id="Vector_29" d="M16.3705 20.4363C16.5802 20.0741 17.0499 19.5787 17.3355 19.2706C17.2217 19.5867 17.1994 19.4995 17.2892 19.7706C17.3886 19.8647 17.5379 20.0274 17.6581 20.0692C17.3077 20.1725 17.0924 20.2194 16.9073 20.5517C16.8658 20.6269 16.8299 20.7052 16.8002 20.7858C16.617 20.7042 16.5139 20.5786 16.3705 20.4363Z" fill="#476C94"/>
<path id="Vector_30" d="M15.5511 23.2807C15.5214 22.5897 15.7245 22.2782 16.0018 21.6405C16.2024 22.5292 16.6112 23.035 15.5511 23.2807Z" fill="#588AB8"/>
<path id="Vector_31" d="M15.0724 31.2788C15.8089 31.281 15.5412 32.6489 15.4982 33.1222C15.1874 33.1104 14.9222 33.0874 14.6126 33.0556C14.3503 33.0393 14.1893 33.044 13.9461 32.9417L13.9061 32.8247C14.0471 32.371 14.6839 31.5782 15.0724 31.2788Z" fill="#D1DEF8"/>
<path id="Vector_32" d="M34.1026 31.5081C35.1159 31.5291 35.7377 32.0627 35.1166 33.0491C33.6592 33.4244 33.6768 32.5719 34.1026 31.5081Z" fill="#F1F1F2"/>
<path id="Vector_33" d="M31.2125 29.0027C31.7394 28.9628 32.8844 29.0654 33.0449 29.6617C32.9152 29.883 32.9074 29.837 32.65 29.9806C32.2785 30.1081 31.7409 30.3479 31.3824 30.2671C31.0138 29.9838 30.962 29.3526 31.2125 29.0027Z" fill="#F1F1F2"/>
<path id="Vector_34" d="M24.2253 31.4308C24.9834 31.5807 25.1212 32.4273 24.8019 33.054C24.747 33.1618 24.5076 33.1363 24.3878 33.1409C23.0695 32.9956 23.484 32.012 24.2253 31.4308Z" fill="#F1F1F2"/>
<path id="Vector_35" d="M26.2981 28.9324C26.6417 28.8991 27.0794 28.8981 27.431 28.8873C27.4222 29.3834 27.5251 30.0879 27.0538 30.3362C26.524 30.1968 25.8086 29.9358 25.8664 29.2788C25.9834 29.0676 26.0816 29.0408 26.2981 28.9324Z" fill="#F1F1F2"/>
<path id="Vector_36" d="M28.9275 31.497C29.0996 31.4962 29.3215 31.4867 29.4683 31.5806C29.9534 31.8909 29.7699 32.9001 29.4934 33.2799C28.2868 33.1918 28.3186 32.2865 28.9275 31.497Z" fill="#F1F1F2"/>
<path id="Vector_37" d="M28.3989 26.6892C28.9523 26.6584 29.7984 26.5415 29.9747 27.1903C29.9511 27.4478 29.7994 27.6205 29.6505 27.8346C28.6873 28.1588 27.9215 27.1935 28.3989 26.6892Z" fill="#F1F1F2"/>
<path id="Vector_38" d="M33.7831 21.9555C34.7609 21.9359 35.7728 21.847 35.1743 23.1582C34.2519 23.6507 33.7656 22.7868 33.7831 21.9555Z" fill="#F1F1F2"/>
<path id="Vector_39" d="M26.5241 24.2093C27.0648 24.155 27.7225 24.1249 27.4036 25.0143C27.3099 25.2756 27.093 25.4507 26.8579 25.5987C25.8339 25.7014 25.6104 24.7265 26.5241 24.2093Z" fill="#F1F1F2"/>
<path id="Vector_40" d="M26.5967 19.4172C27.8383 19.4531 27.7312 20.539 26.8642 20.7501C25.6069 20.713 25.5966 19.7768 26.5967 19.4172Z" fill="#F1F1F2"/>
<path id="Vector_41" d="M33.9201 17.1745C34.1366 17.1645 34.3535 17.1602 34.5703 17.1616C34.875 17.1644 35.041 17.1682 35.266 17.397C35.4385 17.7057 35.335 18.0481 35.2464 18.3762C34.0449 18.753 33.9248 18.1705 33.9201 17.1745Z" fill="#F1F1F2"/>
<path id="Vector_42" d="M28.7669 17.0263C29.2638 17.0058 29.6323 16.8961 29.8819 17.3988C29.8892 17.7762 29.6698 18.0707 29.4263 18.3384C29.2074 18.4853 29.1609 18.5269 28.8992 18.5801C28.2838 18.4043 28.6288 17.4826 28.7669 17.0263Z" fill="#F1F1F2"/>
<path id="Vector_43" d="M34.5503 26.5927C35.158 26.5903 35.6645 26.947 35.2807 27.6304C35.1909 27.7903 34.886 27.7977 34.705 27.8255C34.2892 27.8088 34.0095 27.8017 33.7943 27.4058C33.7722 26.8598 34.0984 26.7622 34.5503 26.5927Z" fill="#F1F1F2"/>
<path id="Vector_44" d="M19.3128 31.5747C19.4543 31.5564 19.597 31.5509 19.7394 31.5584C20.5496 31.6003 20.3122 32.664 20.2169 33.1883C18.8988 33.1566 19.1415 32.6411 19.3128 31.5747Z" fill="#D1DEF8"/>
<path id="Vector_45" d="M23.2976 21.9505C24.3286 21.902 25.3697 21.6015 24.7468 23.0044C24.0826 23.6359 23.4566 22.4854 23.2976 21.9505Z" fill="#F1F1F2"/>
<path id="Vector_46" d="M31.5031 24.1348C31.9437 24.1725 32.5839 24.1823 32.6896 24.6851C32.6263 24.9335 32.425 25.0633 32.2258 25.2335C31.8639 25.4375 31.6086 25.5348 31.2477 25.2895C31.005 24.8568 31.2241 24.4816 31.5031 24.1348Z" fill="#F1F1F2"/>
<path id="Vector_47" d="M31.2957 19.2397C31.7417 19.2613 32.2955 19.6734 32.3416 20.1534C32.2946 20.355 32.1261 20.4374 31.9541 20.5541C31.6685 20.6548 31.5513 20.7084 31.2506 20.7181C30.6884 20.4455 31.0781 19.664 31.2957 19.2397Z" fill="#F1F1F2"/>
<path id="Vector_48" d="M23.2303 26.6475C23.7482 26.7306 24.4474 26.7745 24.9966 26.8414C24.9338 27.1986 24.8554 27.4995 24.765 27.8481C24.152 28.4112 23.4027 27.0852 23.2303 26.6475Z" fill="#F1F1F2"/>
<path id="Vector_49" d="M16.8431 29.1884C17.8643 29.1062 18.4663 29.4859 17.7762 30.4968C16.9306 30.9632 16.689 29.8409 16.8431 29.1884Z" fill="#D1DEF8"/>
<path id="Vector_50" d="M19.4923 26.798C20.5866 26.7963 20.7434 27.4363 20.1469 28.2279C19.8974 28.2327 19.644 28.2704 19.4478 28.085C19.0741 27.7316 19.1383 27.151 19.4923 26.798Z" fill="#F1F1F2"/>
<path id="Vector_51" d="M24.0521 17.027C24.2346 17.0115 24.371 17.0213 24.5515 17.0305C24.6371 17.0712 24.6941 17.1037 24.7496 17.1836C24.8668 17.3513 24.9145 17.5578 24.8828 17.7599C24.8336 18.0794 24.7418 18.3035 24.4835 18.49C23.3362 18.4592 23.5098 17.7155 24.0521 17.027Z" fill="#F1F1F2"/>
<path id="Vector_52" d="M21.7145 29.1335C23.0891 28.991 22.7357 29.8143 22.4432 30.7684C21.8238 30.9888 21.511 29.7025 21.7145 29.1335Z" fill="#F1F1F2"/>
<path id="Vector_53" d="M31.4363 14.8472C31.8831 14.8148 32.1283 14.7425 32.49 15.0086C32.6973 15.4056 32.4036 15.6093 32.096 15.8379C31.6875 15.9679 31.4351 16.0463 31.0951 15.7528C30.9052 15.3484 31.0737 15.0663 31.4363 14.8472Z" fill="#F1F1F2"/>
<path id="Vector_54" d="M26.134 14.8466C26.6271 14.8093 27.2547 14.7247 27.4204 15.2949C27.361 15.5738 27.3463 15.6083 27.1888 15.846C26.2605 16.2116 25.6585 15.8039 26.134 14.8466Z" fill="#F1F1F2"/>
<path id="Vector_55" d="M20.005 21.9965L20.1386 22.0419C20.5174 22.3833 20.5231 22.9713 20.2326 23.377C19.9485 23.5153 19.9547 23.4603 19.5918 23.4326C19.4094 23.3678 19.3772 23.3397 19.2217 23.2223C18.9594 22.6471 19.5564 22.2454 20.005 21.9965Z" fill="#F1F1F2"/>
<path id="Vector_56" d="M28.5473 21.9543C29.363 21.9207 30.3505 22.0068 29.5823 23.0973C29.5327 23.1098 29.4828 23.1215 29.4327 23.1322C28.7214 23.2832 28.1658 22.4784 28.5473 21.9543Z" fill="#F1F1F2"/>
<path id="Vector_57" d="M22.2067 24.4634C22.3301 24.4673 22.4071 24.505 22.5221 24.5471C22.8873 24.8895 22.6982 25.6655 22.0562 25.7415C21.6638 25.5881 21.3707 25.4963 21.3903 25.027C21.564 24.6866 21.8606 24.5892 22.2067 24.4634Z" fill="#F1F1F2"/>
<path id="Vector_58" d="M17.1379 24.452C17.6345 24.5563 17.9821 24.5787 18.0731 25.1272C18.0043 25.4162 17.9102 25.505 17.7213 25.7384C16.7194 25.9269 16.6511 25.1132 17.1379 24.452Z" fill="#D1DEF8"/>
<path id="Vector_59" d="M14.6236 26.7003C15.443 26.6783 15.9792 27.1797 15.4794 28.0157C14.7915 28.0224 14.1905 27.4333 14.6236 26.7003Z" fill="#D1DEF8"/>
<path id="Vector_60" d="M19.7974 17.4032C20.4734 17.4478 20.712 18.2766 20.0603 18.6692C19.6316 18.5109 19.2616 18.4284 19.3041 17.9033C19.4404 17.638 19.5523 17.5795 19.7974 17.4032Z" fill="#B5E0FE"/>
<path id="Vector_61" d="M21.7677 19.7587C22.1925 19.7444 22.7253 19.731 22.7119 20.292C22.5855 20.5328 22.5682 20.5831 22.3406 20.7295C21.9302 20.7175 21.4171 20.6438 21.3914 20.141C21.4933 19.9137 21.5575 19.89 21.7677 19.7587Z" fill="#F1F1F2"/>
<path id="Vector_62" d="M24.2834 13.2453C24.9064 13.2463 25.4153 14.0288 24.9515 14.429C24.525 14.2441 24.0311 14.0891 23.9286 13.6095C24.0365 13.3645 24.0328 13.4219 24.2834 13.2453Z" fill="#D1DEF8"/>
<path id="Vector_63" d="M22.2113 15.1645C22.5643 15.1267 22.8623 15.5794 22.8394 15.9353C22.694 16.1328 22.7033 16.0809 22.4263 16.1755C22.1281 16.1377 22.0471 16.1352 21.7861 15.994C21.6442 15.8032 21.6705 15.8946 21.6925 15.6503C21.8133 15.422 22.0007 15.3156 22.2113 15.1645Z" fill="#D1DEF8"/>
<path id="Vector_64" d="M37.1656 8.83681C38.7455 8.68533 42.4076 8.42946 43.8391 9.15072C43.3191 9.19611 42.7059 8.89198 42.3529 8.86245C41.6117 8.80045 39.3336 8.62531 38.7064 8.84208L38.6609 8.91727C39.0643 9.10047 39.7554 8.58819 40.5598 8.98953C41.0995 9.25879 41.5217 9.51056 42.036 9.87287C42.209 9.95811 42.7841 9.98252 42.9712 10.0654C43.6675 10.3738 44.3426 10.4008 45.072 10.5459C45.3861 10.6085 45.8231 10.8715 46.1339 10.978C48.8926 11.9506 50.6453 14.3042 53.0219 15.8789C53.0562 15.9017 53.4059 15.8513 53.4463 15.93C53.5376 16.0342 54.0058 16.7276 54.0151 16.8058L53.8422 16.757C53.7025 16.6024 53.5382 16.4793 53.3712 16.3562C51.8916 15.2657 50.5148 14.0382 49.0237 12.9635C48.2902 11.7571 44.7376 10.8473 43.361 10.4843C41.3851 9.4379 36.1164 9.3046 33.7669 9.30268C34.6688 9.2171 35.5526 8.97729 36.4604 8.9224C36.6916 8.90838 36.9861 8.95692 37.1656 8.83681Z" fill="#32BAD9"/>
</g>
<defs>
<clipPath id="clip0_0_4">
<rect width="70" height="70" fill="white"/>
</clipPath>
</defs>
</svg>
